<?xml version="1.0" encoding="UTF-8" standalone="no"?>
<svg
   width="74"
   height="74"
   viewBox="0 0 19.579165 19.579165"
   version="1.1"
   id="svg8181"
   sodipodi:docname="icone-assistance-inverted.svg"
   inkscape:version="1.3.2 (091e20e, 2023-11-25, custom)"
   xmlns:inkscape="http://www.inkscape.org/namespaces/inkscape"
   xmlns:sodipodi="http://sodipodi.sourceforge.net/DTD/sodipodi-0.dtd"
   xmlns="http://www.w3.org/2000/svg"
   xmlns:svg="http://www.w3.org/2000/svg">
  <sodipodi:namedview
     id="namedview1"
     pagecolor="#505050"
     bordercolor="#eeeeee"
     borderopacity="1"
     inkscape:showpageshadow="0"
     inkscape:pageopacity="0"
     inkscape:pagecheckerboard="0"
     inkscape:deskcolor="#d1d1d1"
     inkscape:zoom="11.313709"
     inkscape:cx="28.195883"
     inkscape:cy="54.403028"
     inkscape:window-width="2400"
     inkscape:window-height="1321"
     inkscape:window-x="4"
     inkscape:window-y="-9"
     inkscape:window-maximized="1"
     inkscape:current-layer="svg8181" />
  <defs
     id="defs8178" />
  <g
     id="layer1"
     transform="translate(-2.3359632,-2.1190252)">
    <circle
       style="fill:#ffffff;fill-opacity:1;stroke:none;stroke-width:0.313227;stroke-miterlimit:4;stroke-dasharray:none;stroke-dashoffset:0;stroke-opacity:1"
       id="path5842-5-2-4-5-6"
       cx="12.125546"
       cy="11.908608"
       r="9.5249996" />
    <path
       style="fill:#252c61;fill-opacity:1;stroke:none;stroke-width:0.347067;stroke-miterlimit:4;stroke-dasharray:none;stroke-opacity:1"
       d="m 17.74968,14.783931 c 0.64497,-0.635632 1.031972,-1.433091 1.031972,-2.303237 0,-1.876372 -1.794249,-3.4267109 -4.132651,-3.7034649 -0.738808,-1.350989 -2.474443,-2.300898 -4.49855,-2.300898 -2.6949035,0 -4.8785215,1.679333 -4.8785215,3.7527359 0,0.867806 0.386996,1.665265 1.03199,2.303217 -0.358838,0.720045 -0.874833,1.278273 -0.884212,1.287651 -0.147817,0.157119 -0.189966,0.387012 -0.103294,0.586382 0.08429,0.19936 0.281427,0.328364 0.497196,0.328364 1.254804,0 2.268073,-0.473784 2.936516,-0.910057 0.21579,0.04929 0.438584,0.08668 0.666088,0.114967 0.7364545,1.34631 2.4650655,2.293859 4.4868355,2.293859 0.487856,0 0.956914,-0.05619 1.402562,-0.159488 0.668482,0.433913 1.679333,0.910027 2.93648,0.910027 0.215807,0 0.410477,-0.129014 0.49727,-0.328364 0.08428,-0.19936 0.04429,-0.429224 -0.103289,-0.586362 -0.01,-0.008 -0.527694,-0.565246 -0.886552,-1.285312 z m -9.2129095,-2.164854 -0.401066,0.260327 c -0.330679,0.213437 -0.668422,0.382323 -1.010875,0.501929 0.06332,-0.110227 0.126643,-0.227504 0.187591,-0.34713 l 0.363547,-0.729423 -0.581691,-0.574645 c -0.31663,-0.314277 -0.696581,-0.827943 -0.696581,-1.501068 0,-1.4236939 1.719191,-2.6269119 3.7526965,-2.6269119 2.033506,0 3.752697,1.203218 3.752697,2.6269119 0,1.423674 -1.719191,2.626892 -3.752697,2.626892 -0.3869965,0 -0.7739925,-0.04449 -1.1492745,-0.131394 z m 8.4224885,1.362706 -0.579334,0.572285 0.363567,0.729433 c 0.06099,0.119716 0.124275,0.236882 0.187592,0.34712 -0.342411,-0.119716 -0.680153,-0.288492 -1.010874,-0.501919 l -0.401046,-0.260358 -0.466782,0.107849 c -0.375261,0.08668 -0.762238,0.131393 -1.149254,0.131393 -1.266518,0 -2.397052,-0.471435 -3.079564,-1.165695 2.375919,-0.253309 4.205389,-1.815365 4.205389,-3.712824 0,-0.07978 -0.0099,-0.157118 -0.01583,-0.2345529 1.51046,0.3400819 2.643313,1.3322119 2.643313,2.4861799 0,0.673135 -0.379974,1.186792 -0.69662,1.501089 z"
       id="path6783-0" />
  </g>
  <path
     style="fill:#ffff00;stroke-width:0.0657778;opacity:1"
     d="m 58.410666,56.070798 c -3.029667,-0.305342 -5.988607,-1.30802 -8.708548,-2.951011 l -0.675741,-0.408183 -0.866078,0.169431 C 44.52418,53.59237 40.549911,53.401208 37.065777,52.347388 34.778499,51.655573 32.529,50.524087 30.762643,49.176944 29.301172,48.062327 27.938457,46.570859 27.088462,45.155615 l -0.296793,-0.494161 -1.09539,-0.188032 c -0.602465,-0.103417 -1.184191,-0.201134 -1.292724,-0.217148 -0.156125,-0.02304 -0.348428,0.06245 -0.920889,0.409378 -3.049014,1.847789 -6.663365,2.92868 -9.866666,2.950682 -0.9544,0.0066 -0.997826,8.92e-4 -1.327884,-0.173135 -0.707919,-0.37326 -1.086781,-0.957549 -1.127873,-1.739431 -0.0315,-0.599353 0.150147,-1.028991 0.700313,-1.656414 1.097945,-1.252122 2.368402,-3.090153 3.001661,-4.342645 l 0.178961,-0.353957 -0.291928,-0.303821 c -1.939324,-2.018335 -3.145932,-4.39679 -3.502439,-6.90398 -0.150539,-1.058687 -0.106192,-2.692586 0.09937,-3.661174 0.530015,-2.49736 1.795952,-4.69204 3.839863,-6.656939 3.011359,-2.894949 7.273772,-4.73204 12.111731,-5.22013 1.029895,-0.103904 3.471734,-0.104823 4.472889,-0.0017 4.387103,0.451961 8.203475,1.953528 11.196237,4.405206 1.415453,1.159541 2.419853,2.330223 3.463298,4.036658 0.07004,0.114548 0.167238,0.180889 0.265017,0.180889 0.296434,0 1.724482,0.267349 2.652207,0.496528 4.72416,1.167024 8.640455,3.761712 10.86653,7.199472 2.262589,3.49415 2.517529,7.558043 0.703556,11.215111 -0.613057,1.235955 -1.255921,2.159099 -2.287687,3.285091 l -0.411701,0.449298 0.293605,0.565763 c 0.569408,1.097224 1.91568,3.016653 2.882614,4.109847 0.48578,0.549212 0.668775,0.911218 0.714275,1.413002 0.05773,0.636632 -0.109128,1.071467 -0.599195,1.561534 -0.52548,0.525481 -0.821173,0.623457 -1.844473,0.611159 -0.400434,-0.0048 -0.964861,-0.03261 -1.254283,-0.06178 z M 54.918164,50.545971 C 54.75678,50.254212 54.287468,49.341447 53.875249,48.517606 l -0.74949,-1.497894 1.348151,-1.342746 c 1.47282,-1.466914 2.13318,-2.276034 2.599037,-3.184522 0.60083,-1.171703 0.844385,-2.139715 0.844385,-3.356017 0,-2.197538 -1.072622,-4.303368 -3.091555,-6.069511 -1.127116,-0.985989 -2.855429,-1.997817 -4.443829,-2.601604 -0.64124,-0.243751 -1.887429,-0.615329 -2.264182,-0.675115 l -0.231545,-0.03674 -0.0058,1.173051 c -0.0047,0.943757 -0.03434,1.308054 -0.151721,1.863718 -0.955546,4.523278 -4.524146,8.325136 -9.774905,10.413829 -1.591072,0.632911 -3.081112,1.030163 -4.900444,1.306485 -0.524578,0.07967 -0.96593,0.153815 -0.980782,0.164758 -0.102017,0.07517 1.207136,1.164088 2.099004,1.745892 1.966761,1.283005 4.292608,2.13193 6.906666,2.520904 0.379867,0.05653 1.316241,0.11995 2.080832,0.140946 2.021473,0.05551 3.33505,-0.08837 5.59943,-0.61332 l 1.046948,-0.242714 1.197537,0.763557 c 0.658646,0.419956 1.581328,0.958711 2.050405,1.197233 0.808411,0.41107 1.911408,0.880923 2.080421,0.886216 0.04279,0.0013 -0.05425,-0.236277 -0.21563,-0.528037 z M 18.6495,42.399679 c 1.207466,-0.469972 2.207308,-1.001878 3.735783,-1.9874 0.554128,-0.357287 1.062889,-0.649613 1.130581,-0.649613 0.06769,0 0.576312,0.104897 1.130271,0.233105 3.024949,0.700091 5.416123,0.795048 8.176975,0.324719 1.706406,-0.290698 3.222817,-0.775574 4.736,-1.514349 2.898123,-1.414938 5.038323,-3.598399 5.817728,-5.935322 0.474317,-1.422168 0.474317,-3.014582 0,-4.43675 -0.840354,-2.519671 -3.318596,-4.906321 -6.508394,-6.267853 -4.822144,-2.058281 -10.648534,-1.944753 -15.293333,0.297993 -2.725891,1.316198 -4.805658,3.31604 -5.698735,5.479732 -0.875922,2.122133 -0.681521,4.469437 0.534831,6.457836 0.493992,0.807541 0.844969,1.217612 2.29681,2.683519 l 1.419983,1.433741 -1.026912,2.036037 c -0.564801,1.11982 -1.008126,2.036036 -0.985166,2.036036 0.02296,0 0.26307,-0.08614 0.533578,-0.191431 z"
     id="path1"
     transform="scale(0.26458331)" />
  <path
     style="opacity:1;fill:#000080;stroke-width:2.00000001;stroke:#ffff00;stroke-dasharray:none"
     d="M 34.960888,72.913422 C 29.262163,72.542192 23.934953,70.952133 19.102867,68.180152 10.040351,62.981332 3.6862839,54.078695 1.6842889,43.77511 1.2389407,41.483055 1.0588748,39.532401 1.0588748,36.999999 c 0,-2.532401 0.1800659,-4.483055 0.6254141,-6.775111 C 2.7227185,24.880445 4.9448005,19.841711 8.1675772,15.523555 13.543781,8.3200501 21.38131,3.4026033 30.224888,1.6842889 c 2.292891,-0.4455106 4.250121,-0.6264961 6.775111,-0.6264961 4.058302,0 7.503551,0.5573891 11.346667,1.835719 8.226345,2.7363169 15.068556,8.2371402 19.555345,15.7215992 0.30363,0.506489 0.883566,1.58745 1.288744,2.402137 3.578804,7.195858 4.640701,15.21225 3.0582,23.086751 -1.455761,7.243836 -5.252376,14.069872 -10.615178,19.085291 -2.651855,2.480077 -5.40156,4.387877 -8.651026,6.002248 -4.123873,2.048793 -8.452063,3.260815 -13.055641,3.655988 -1.12739,0.09677 -3.922858,0.133864 -4.966222,0.0659 z M 61.045951,55.99661 c 0.397828,-0.207772 0.7809,-0.613986 0.972476,-1.031227 0.19623,-0.427379 0.195608,-1.234481 -0.0013,-1.663449 -0.07749,-0.168825 -0.447664,-0.672025 -0.822612,-1.118222 -1.039606,-1.23716 -1.904196,-2.48378 -2.561068,-3.692709 l -0.31684,-0.583123 0.606132,-0.689931 c 2.063651,-2.348956 3.105708,-4.784628 3.245888,-7.586839 0.117029,-2.339432 -0.603273,-4.835042 -2.002949,-6.939555 -2.019393,-3.0363 -5.537821,-5.483999 -9.68908,-6.740496 -0.902382,-0.273132 -2.805747,-0.686026 -3.5132,-0.762112 l -0.396586,-0.04265 -0.228303,-0.397849 c -0.567849,-0.98955 -1.651782,-2.319318 -2.576678,-3.161065 -1.99536,-1.815978 -4.157882,-3.056367 -6.959181,-3.991681 -5.292164,-1.766979 -11.570108,-1.477549 -16.542943,0.762672 -2.161385,0.973686 -3.845722,2.120348 -5.39612,3.673569 -1.916419,1.919907 -3.101875,4.065429 -3.600046,6.515615 -0.126347,0.621425 -0.146573,0.923174 -0.14329,2.137778 0.0033,1.207259 0.02536,1.514138 0.150983,2.09697 0.226319,1.050005 0.50741,1.86752 0.963934,2.803474 0.620277,1.271673 1.198694,2.115447 2.300005,3.35516 l 0.392966,0.442352 -0.294299,0.563605 c -0.582207,1.114965 -1.714005,2.740827 -2.755649,3.958568 -0.669954,0.783217 -0.819793,1.137722 -0.778969,1.842982 0.03457,0.597168 0.237922,1.04125 0.645378,1.409363 0.590813,0.533763 1.124295,0.631683 2.736232,0.502231 3.209062,-0.257714 6.270781,-1.254746 9.098627,-2.962917 l 0.670092,-0.404771 0.932106,0.166332 c 0.512657,0.09148 1.069272,0.185151 1.236921,0.20815 0.302429,0.04149 0.307841,0.04672 0.690667,0.667423 1.1667,1.891654 3.119586,3.750166 5.327035,5.069604 4.502143,2.691024 10.461339,3.628319 15.941091,2.507304 l 0.62272,-0.127393 0.556991,0.340367 c 3.213315,1.9636 7.061857,3.110674 10.26779,3.060357 0.8178,-0.01284 0.914329,-0.02769 1.221063,-0.187884 z"
     id="path2"
     transform="scale(0.26458331)" />
  <path
     style="opacity:1;fill:#000080;stroke-width:0.0657778"
     d="m 54.054147,50.586671 c -0.993528,-0.434565 -1.81471,-0.890508 -3.142298,-1.74469 -0.563978,-0.362868 -1.070807,-0.65976 -1.126288,-0.65976 -0.05548,0 -0.623928,0.120772 -1.263218,0.268381 -2.074863,0.479078 -2.684809,0.548454 -4.813011,0.547437 -1.424761,-6.8e-4 -2.045238,-0.02738 -2.585408,-0.111258 -2.854737,-0.443284 -5.342009,-1.404898 -7.404464,-2.862669 -0.523815,-0.37024 -1.55256,-1.254764 -1.50774,-1.296368 0.01067,-0.0099 0.35979,-0.06729 0.775835,-0.127545 3.488808,-0.50524 6.84442,-1.843984 9.393684,-3.747672 2.46319,-1.839411 4.175724,-4.099104 5.019787,-6.623624 0.398539,-1.191996 0.520093,-1.889385 0.56375,-3.234387 l 0.038,-1.170818 0.204833,0.04367 c 0.999715,0.21313 2.56041,0.793223 3.741359,1.390621 2.380393,1.204152 4.218661,2.918646 5.187797,4.838493 0.88893,1.760962 0.947547,3.90564 0.15773,5.771074 -0.502535,1.186914 -1.072859,1.929042 -2.834919,3.688913 l -1.421347,1.419582 0.928667,1.868024 c 0.510766,1.027413 0.957363,1.896722 0.992438,1.931797 0.08865,0.08865 0.07964,0.169627 -0.01845,0.165855 -0.04522,-0.0017 -0.444256,-0.161513 -0.886741,-0.355055 z"
     id="path3"
     transform="scale(0.26458331)" />
  <path
     style="opacity:1;fill:#000080;stroke-width:0.0657778;stroke:#000080"
     d="m 18.264296,42.404874 c 0.01206,-0.03007 0.461457,-0.920691 0.998662,-1.979148 l 0.976735,-1.924467 -1.540469,-1.556408 c -1.639371,-1.656332 -2.154891,-2.314211 -2.645469,-3.376001 -2.01614,-4.363671 0.756018,-9.154165 6.674454,-11.533952 1.322216,-0.531659 3.044394,-0.960142 4.668235,-1.161469 0.886912,-0.109962 3.382518,-0.110467 4.275555,-8.67e-4 4.480569,0.549892 8.295462,2.502052 10.435151,5.339882 0.513131,0.680555 1.080975,1.806068 1.301737,2.580144 1.507644,5.286395 -3.692969,10.555619 -11.445181,11.596176 -2.333259,0.313186 -4.558185,0.166583 -7.424649,-0.489222 l -1.114275,-0.25493 -0.990614,0.641082 c -1.531035,0.99082 -2.403586,1.468478 -3.547548,1.942022 -0.594066,0.245915 -0.657088,0.263855 -0.622324,0.177158 z"
     id="path4"
     transform="scale(0.26458331)" />
</svg>
