<?xml version="1.0" encoding="UTF-8" standalone="no"?>
<svg
   width="74"
   height="74"
   viewBox="0 0 19.579165 19.579165"
   version="1.1"
   id="svg8181"
   sodipodi:docname="icone-documentation-inverted.svg"
   inkscape:version="1.3.2 (091e20e, 2023-11-25, custom)"
   xmlns:inkscape="http://www.inkscape.org/namespaces/inkscape"
   xmlns:sodipodi="http://sodipodi.sourceforge.net/DTD/sodipodi-0.dtd"
   xmlns="http://www.w3.org/2000/svg"
   xmlns:svg="http://www.w3.org/2000/svg">
  <sodipodi:namedview
     id="namedview1"
     pagecolor="#505050"
     bordercolor="#eeeeee"
     borderopacity="1"
     inkscape:showpageshadow="0"
     inkscape:pageopacity="0"
     inkscape:pagecheckerboard="0"
     inkscape:deskcolor="#d1d1d1"
     inkscape:zoom="11.313708"
     inkscape:cx="31.289475"
     inkscape:cy="14.628272"
     inkscape:window-width="2400"
     inkscape:window-height="1321"
     inkscape:window-x="4"
     inkscape:window-y="-9"
     inkscape:window-maximized="1"
     inkscape:current-layer="layer1" />
  <defs
     id="defs8178" />
  <g
     id="layer1"
     transform="translate(-2.3359632,-2.1190252)"
     style="fill:#000080">
    <ellipse
       style="fill:#ffff00;fill-opacity:1;stroke:none;stroke-width:0.204045;stroke-opacity:1"
       id="path46729"
       cx="12.132513"
       cy="12.102958"
       rx="6.7881007"
       ry="7.9194412" />
    <path
       d="m 15.049724,11.194226 -0.85724,0.876295 c -0.6858,0.685812 -1.11445,1.266838 -1.11445,2.695594 h -1.90498 v -0.476252 c 0,-1.057279 0.42861,-2.009782 1.11441,-2.695574 l 1.18111,-1.200148 c 0.35244,-0.342911 0.56199,-0.8191435 0.56199,-1.3430275 0,-1.057279 -0.85726,-1.905008 -1.90502,-1.905008 a 1.9050016,1.9049993 0 0 0 -1.90501,1.905008 H 8.3155535 a 3.8100031,3.8099985 0 0 1 3.8099905,-3.810004 3.8100031,3.8099985 0 0 1 3.81,3.810004 c 0,0.838209 -0.34308,1.5906725 -0.88582,2.1431125 m -1.97169,7.381882 h -1.90498 v -1.904996 h 1.90498 M 12.125544,2.3836085 a 9.525008,9.5249965 0 0 0 -9.5249975,9.5250055 9.525008,9.5249965 0 0 0 9.5249975,9.524995 9.525008,9.5249965 0 0 0 9.525,-9.524995 c 0,-5.2673255 -4.28623,-9.5250055 -9.525,-9.5250055 z"
       id="path2-2-7"
       style="fill:#000080;fill-opacity:1;stroke-width:0.952499" />
    <circle
       style="fill:none;stroke:#ffff00;stroke-width:0.52916662;stroke-dasharray:none"
       id="path1"
       cx="12.221268"
       cy="11.847695"
       r="9.606266" />
  </g>
</svg>
