<?xml version="1.0" encoding="UTF-8" standalone="no"?>
<svg
   id="8b97e20a-c8e6-4906-841d-155de7b1174f"
   data-name="Calque 1"
   width="99.698204"
   height="83.045921"
   viewBox="0 0 99.6982 83.045921"
   version="1.1"
   sodipodi:docname="icone-handicap-visuel.svg"
   inkscape:version="1.1.2 (0a00cf5339, 2022-02-04, custom)"
   xmlns:inkscape="http://www.inkscape.org/namespaces/inkscape"
   xmlns:sodipodi="http://sodipodi.sourceforge.net/DTD/sodipodi-0.dtd"
   xmlns="http://www.w3.org/2000/svg"
   xmlns:svg="http://www.w3.org/2000/svg"
   xmlns:rdf="http://www.w3.org/1999/02/22-rdf-syntax-ns#"
   xmlns:cc="http://creativecommons.org/ns#"
   xmlns:dc="http://purl.org/dc/elements/1.1/">
  <metadata
     id="metadata835">
    <rdf:RDF>
      <cc:Work
         rdf:about="">
        <dc:format>image/svg+xml</dc:format>
        <dc:type
           rdf:resource="http://purl.org/dc/dcmitype/StillImage" />
        <dc:title>Plan de travail 1 copie</dc:title>
      </cc:Work>
    </rdf:RDF>
  </metadata>
  <defs
     id="defs833" />
  <sodipodi:namedview
     pagecolor="#ffffff"
     bordercolor="#666666"
     borderopacity="1"
     objecttolerance="10"
     gridtolerance="10"
     guidetolerance="10"
     inkscape:pageopacity="0"
     inkscape:pageshadow="2"
     inkscape:window-width="1920"
     inkscape:window-height="1017"
     id="namedview831"
     showgrid="false"
     inkscape:zoom="3.56"
     inkscape:cx="43.820225"
     inkscape:cy="82.865169"
     inkscape:window-x="-8"
     inkscape:window-y="-8"
     inkscape:window-maximized="1"
     inkscape:current-layer="8b97e20a-c8e6-4906-841d-155de7b1174f"
     inkscape:pagecheckerboard="0"
     fit-margin-top="0"
     fit-margin-left="0"
     fit-margin-right="0"
     fit-margin-bottom="0" />
  <title
     id="title826">Plan de travail 1 copie</title>
  <path
     d="M 99.698203,41.44328 99.266364,40.77891 98.960753,40.30555 C 98.314657,39.299035 83.082387,16.208979 51.126347,15.150966 c -0.539798,-0.03166 -1.084579,-0.05148 -1.632684,-0.05148 v 0.01384 c -0.214269,0 -0.42021,-0.01384 -0.634469,-0.01384 -0.132882,0 -0.259106,0 -0.391976,0.0082 L 44.823165,0 l -4.2752,1.031446 3.436437,14.248989 C 24.77922,16.642431 12.398745,25.799065 5.8132094,32.505845 2.079468,36.307684 0.20429275,39.315605 0,39.662736 v 0 c 0,0 1.2340614,5.002683 4.5841309,8.337803 a 61.15164,61.15164 0 0 0 5.8995771,5.691962 L 6.7150865,38.079884 C 7.3329476,37.364029 8.0438223,36.585057 8.8526882,35.754599 9.4074351,35.188227 10.01533,34.591958 10.664748,33.997348 l 5.831478,24.164681 a 59.200063,59.200063 0 0 0 5.261786,3.052767 L 14.420081,30.816692 14.586166,30.6805 c 1.317107,-0.996553 2.670754,-1.933311 4.050978,-2.803629 l 8.636765,35.824316 c 1.572892,0.611218 3.213877,1.162641 4.926283,1.660917 L 22.625011,25.608097 q 2.174139,-1.121118 4.442953,-2.034623 l 10.389037,43.05761 q 2.275456,0.440144 4.698731,0.719177 L 39.177709,55.009646 a 16.536089,16.536089 0 0 0 5.647119,2.929859 l 2.361823,9.786122 c 0.807206,0.02989 1.622714,0.04983 2.453174,0.04983 0.700906,0 1.390186,-0.01485 2.076145,-0.03489 l -2.202375,-9.135041 a 16.582595,16.582595 0 0 0 4.765171,-0.700905 l 6.057366,25.141301 4.275199,-1.031428 -3.394914,-14.071291 q 2.094416,-0.403602 4.064263,-0.935095 C 87.982093,60.940775 98.53888,43.413119 99.012243,42.609236 l 0.377029,-0.642774 z M 69.60903,23.252917 c 0.363741,0.139523 0.732465,0.274054 1.08956,0.418549 0.102992,0.04151 0.202652,0.08636 0.30395,0.129573 0.498275,0.20764 1.006517,0.418555 1.494825,0.636133 0.132842,0.05978 0.25743,0.121247 0.390312,0.181028 0.451771,0.205954 0.903541,0.411907 1.342022,0.626168 0.166083,0.07972 0.317237,0.166083 0.478346,0.24248 0.398621,0.199303 0.79724,0.396957 1.184235,0.601252 0.176033,0.09302 0.345472,0.190998 0.519866,0.284016 0.360421,0.194328 0.724158,0.388656 1.072952,0.587963 0.149472,0.08472 0.290662,0.166083 0.438481,0.259109 0.365402,0.212605 0.732467,0.423534 1.08624,0.639451 0.08307,0.0515 0.166083,0.102972 0.24581,0.154468 0.410246,0.252474 0.815513,0.498276 1.209146,0.76236 l 0.232544,0.156132 c 0.391977,0.257456 0.77897,0.514885 1.162642,0.775646 l 0.186023,0.132883 c 0.383671,0.267421 0.764021,0.536476 1.131082,0.805546 l 0.166083,0.124577 c 0.368722,0.272405 0.732465,0.544781 1.082916,0.817172 l 0.181028,0.142852 c 0.332185,0.265743 0.675996,0.529832 0.99655,0.793918 0.09469,0.07639 0.181028,0.152822 0.274058,0.229209 0.284018,0.234193 0.566374,0.46838 0.830458,0.700908 0.09966,0.08636 0.192663,0.166083 0.29066,0.255778 0.254125,0.220899 0.509901,0.441806 0.752399,0.66437 l 0.174408,0.166082 c 0.272405,0.247491 0.54312,0.498277 0.800564,0.735786 l 0.04819,0.0465 c 0.295645,0.279033 0.584642,0.554744 0.860357,0.830456 l 0.04983,0.04983 c 0.272406,0.267424 0.536478,0.531493 0.788938,0.790599 l 0.166083,0.166083 c 0.207594,0.214269 0.415229,0.428515 0.607894,0.634469 l 0.177718,0.192663 c 0.179383,0.192643 0.358756,0.386993 0.52651,0.571355 l 0.106281,0.119582 c 0.401943,0.44845 0.770665,0.87198 1.097866,1.260636 l 0.114587,0.139523 c 0.478342,0.573018 0.875305,1.076274 1.182573,1.479878 -2.506325,3.597546 -11.128144,14.557934 -26.363735,19.979168 5.617221,-4.9678 8.968952,-12.064901 8.968952,-19.725049 0,-7.298068 -3.039479,-13.918483 -7.950808,-18.743447 0.166082,0.05645 0.332181,0.122913 0.501594,0.184359 z M 34.397591,35.161691 31.241851,22.081969 q 2.277113,-0.70755 4.640601,-1.220774 l 2.202375,9.135045 a 16.624118,16.624118 0 0 0 -3.69388,5.170434 z m 7.550529,-7.910948 -1.73566,-7.15357 q 2.371789,-0.332182 4.816662,-0.473361 l 1.468249,6.087263 a 16.466331,16.466331 0 0 0 -4.557556,1.544649 z m 9.037048,-1.752268 -1.445,-5.990927 c 0.433504,0 0.867002,0.01163 1.293858,0.0267 12.152926,0.664367 21.827769,10.397341 21.827769,22.266254 0,8.545416 -5.032578,16.255393 -12.916951,20.00076 L 58.356319,56.047721 A 16.585917,16.585917 0 0 0 50.976865,25.503456 Z"
     id="path828"
     style="fill:#252c61;fill-opacity:1;stroke-width:0.166092"
     inkscape:connector-curvature="0"
     inkscape:export-filename="C:\Users\arnaud\Documents\Site elements\theses\V4\theses assets\icone-handicap-visuel.png"
     inkscape:export-xdpi="95.946915"
     inkscape:export-ydpi="95.946915" />
</svg>
