<?xml version="1.0" encoding="UTF-8" standalone="no"?>
<svg
   xmlns:dc="http://purl.org/dc/elements/1.1/"
   xmlns:cc="http://creativecommons.org/ns#"
   xmlns:rdf="http://www.w3.org/1999/02/22-rdf-syntax-ns#"
   xmlns:svg="http://www.w3.org/2000/svg"
   xmlns="http://www.w3.org/2000/svg"
   xmlns:sodipodi="http://sodipodi.sourceforge.net/DTD/sodipodi-0.dtd"
   xmlns:inkscape="http://www.inkscape.org/namespaces/inkscape"
   viewBox="0 0 1105.3567 917.14672"
   version="1.1"
   id="svg154"
   sodipodi:docname="logo-mesri.svg"
   inkscape:version="0.92.4 (5da689c313, 2019-01-14)"
   width="1105.3567"
   height="917.14673">
  <metadata
     id="metadata158">
    <rdf:RDF>
      <cc:Work
         rdf:about="">
        <dc:format>image/svg+xml</dc:format>
        <dc:type
           rdf:resource="http://purl.org/dc/dcmitype/StillImage" />
        <dc:title>Plan de travail 2</dc:title>
      </cc:Work>
    </rdf:RDF>
  </metadata>
  <sodipodi:namedview
     pagecolor="#ffffff"
     bordercolor="#666666"
     borderopacity="1"
     objecttolerance="10"
     gridtolerance="10"
     guidetolerance="10"
     inkscape:pageopacity="0"
     inkscape:pageshadow="2"
     inkscape:window-width="1600"
     inkscape:window-height="877"
     id="namedview156"
     showgrid="false"
     inkscape:zoom="0.25755194"
     inkscape:cx="444.77089"
     inkscape:cy="458.57334"
     inkscape:window-x="-8"
     inkscape:window-y="-8"
     inkscape:window-maximized="1"
     inkscape:current-layer="svg154"
     fit-margin-top="0"
     fit-margin-left="0"
     fit-margin-right="0"
     fit-margin-bottom="0" />
  <defs
     id="defs4">
    <style
       id="style2">.cls-1{fill:#000091;}.cls-2{fill:#e1000f;}.cls-3{fill:#9d9d9c;}.cls-4{fill:none;}</style>
  </defs>
  <title
     id="title6">Plan de travail 2</title>
  <rect
     style="opacity:1;fill:#ffffff;fill-opacity:1;stroke:#ffffff;stroke-width:0.8266921;stroke-linejoin:bevel;stroke-miterlimit:4;stroke-dasharray:none;stroke-opacity:1"
     id="rect965"
     width="1104.53"
     height="916.32001"
     x="0.41334605"
     y="0.41334605" />
  <g
     id="vect"
     transform="translate(0.40339,0.41334544)">
    <path
       d="m 84,209.58 h 16.15 l 15.25,26 15.25,-26 h 16.15 v 63.15 H 134 V 227.8 l -14.08,23.28 h -9 L 96.81,227.8 v 44.93 H 84 Z"
       id="path8"
       inkscape:connector-curvature="0" />
    <path
       d="m 164.39,209.58 h 12.82 v 63.15 h -12.82 z"
       id="path10"
       inkscape:connector-curvature="0" />
    <path
       d="m 194.89,209.58 h 16.42 l 28.24,45.2 v -45.2 h 12.81 v 63.15 H 235.94 L 207.7,227.35 v 45.38 h -12.81 z"
       id="path12"
       inkscape:connector-curvature="0" />
    <path
       d="m 270.05,209.58 h 12.81 v 63.15 h -12.81 z"
       id="path14"
       inkscape:connector-curvature="0" />
    <path
       d="m 304.16,255.41 c 3.79,4.87 8.84,7.76 14,7.76 5.16,0 8.12,-2.71 8.12,-7.31 0,-11.28 -28.87,-8.75 -28.87,-29.77 0,-10 8.21,-18.32 20.21,-18.32 9.47,0 16.78,4.24 22.1,10.65 l -9.38,8.39 c -3.7,-4.78 -7.85,-7.85 -12.63,-7.85 -4.42,0 -7.31,2.89 -7.31,6.58 0,11.28 28.87,8.67 28.87,30.05 -0.18,11.73 -9.38,19 -20.93,19 -10.65,0 -17.86,-3.88 -23.46,-10.56 z"
       id="path16"
       inkscape:connector-curvature="0" />
    <path
       d="m 345.75,209.58 h 51.79 v 11.63 h -19.49 v 51.52 h -12.81 v -51.52 h -19.49 z"
       id="path18"
       inkscape:connector-curvature="0" />
    <path
       d="m 408.82,209.58 h 36.81 v 10.91 h -24 v 14.62 H 442 V 246 h -20.37 v 15.79 h 24 V 272.7 H 408.82 Z M 409.9,192 h 13.18 l 10.19,12.18 h -11.73 z"
       id="path20"
       inkscape:connector-curvature="0" />
    <path
       d="m 460.52,209.58 h 19.31 c 13.9,0 22.47,7.12 22.47,18.85 0,7.58 -3.7,13.27 -10.11,16.33 l 19.85,28 H 496.7 L 479.92,247.2 h -6.59 v 25.53 h -12.81 z m 12.81,10.91 v 15.79 h 7.22 c 5.42,0 8.57,-2.89 8.57,-8 0,-4.78 -3.15,-7.76 -8.57,-7.76 z"
       id="path22"
       inkscape:connector-curvature="0" />
    <path
       d="m 520,209.58 h 36.81 v 10.91 h -24 v 14.62 h 20.4 V 246 h -20.4 v 15.79 h 24 V 272.7 H 520 Z"
       id="path24"
       inkscape:connector-curvature="0" />
    <path
       d="m 84,300.65 h 24.81 c 20,0 33.57,14.52 33.57,31.57 0,17.05 -13.54,31.58 -33.57,31.58 H 84 Z m 12.81,11.64 v 39.87 H 109 c 11.73,0 20.21,-8.75 20.21,-19.94 0,-11.19 -8.48,-19.93 -20.21,-19.93 z"
       id="path26"
       inkscape:connector-curvature="0" />
    <path
       d="m 154.74,300.65 h 36.81 v 10.91 h -24 v 14.62 h 20.39 v 10.92 h -20.39 v 15.79 h 24 v 10.91 h -36.81 z"
       id="path28"
       inkscape:connector-curvature="0" />
    <path
       d="m 229.9,300.65 h 12.81 v 51.51 h 24 V 363.8 H 229.9 Z"
       id="path30"
       inkscape:connector-curvature="0" />
    <path
       d="m 264,326.63 8.12,-26 h 13 l -10.47,26 z"
       id="path32"
       inkscape:connector-curvature="0" />
    <path
       d="m 295,300.65 h 36.82 v 10.91 h -24 v 14.62 h 20.39 v 10.92 h -20.35 v 15.79 h 24 V 363.8 H 295 Z"
       id="path34"
       inkscape:connector-curvature="0" />
    <path
       d="m 346.75,300.65 h 16.42 l 28.24,45.2 v -45.2 h 12.81 V 363.8 H 387.8 l -28.24,-45.38 v 45.38 h -12.81 z"
       id="path36"
       inkscape:connector-curvature="0" />
    <path
       d="m 425.51,346.48 c 3.79,4.87 8.85,7.76 14,7.76 5.15,0 8.12,-2.71 8.12,-7.31 0,-11.28 -28.87,-8.75 -28.87,-29.77 0,-10 8.21,-18.32 20.21,-18.32 9.47,0 16.78,4.24 22.1,10.65 l -9.38,8.39 c -3.7,-4.78 -7.85,-7.85 -12.63,-7.85 -4.42,0 -7.31,2.89 -7.31,6.59 0,11.27 28.87,8.66 28.87,30 -0.18,11.73 -9.38,18.95 -20.93,18.95 -10.65,0 -17.86,-3.88 -23.46,-10.56 z"
       id="path38"
       inkscape:connector-curvature="0" />
    <path
       d="m 474.06,300.65 h 36.81 v 10.91 h -24 v 14.62 h 20.39 v 10.92 h -20.39 v 15.79 h 24 v 10.91 h -36.81 z"
       id="path40"
       inkscape:connector-curvature="0" />
    <path
       d="m 525.76,300.65 h 12.81 v 63.15 h -12.81 z"
       id="path42"
       inkscape:connector-curvature="0" />
    <path
       d="m 600,348.1 v -10.64 h -16 v -11.64 h 28.88 v 26.89 c -5.87,7.85 -15.7,12.9 -27.52,12.9 -20.48,0 -34.47,-15.34 -34.47,-33.39 0,-18.05 13.63,-33.38 33.57,-33.38 11.45,0 20.84,5.14 26.61,12.81 l -10.1,7.85 a 19.76,19.76 0 0 0 -16.51,-8.66 c -11.91,0 -20.4,9.29 -20.4,21.38 0,12.09 8.94,21.39 21.3,21.39 A 21.07,21.07 0 0 0 600,348.1 Z"
       id="path44"
       inkscape:connector-curvature="0" />
    <path
       d="m 627.08,300.65 h 16.43 l 28.24,45.2 v -45.2 h 12.81 V 363.8 H 668.14 L 639.9,318.42 v 45.38 h -12.82 z"
       id="path46"
       inkscape:connector-curvature="0" />
    <path
       d="m 702.24,300.65 h 36.82 v 10.91 h -24 v 14.62 h 20.39 v 10.92 h -20.39 v 15.79 h 24 v 10.91 h -36.82 z"
       id="path48"
       inkscape:connector-curvature="0" />
    <path
       d="m 754,300.65 h 16.1 l 15.24,26 15.25,-26 h 16.15 v 63.15 h -12.81 v -44.93 l -14.08,23.28 h -9 L 766.78,318.87 V 363.8 H 754 Z"
       id="path50"
       inkscape:connector-curvature="0" />
    <path
       d="m 834.34,300.65 h 36.81 v 10.91 h -24 v 14.62 h 20.39 v 10.92 h -20.39 v 15.79 h 24 v 10.91 h -36.81 z"
       id="path52"
       inkscape:connector-curvature="0" />
    <path
       d="m 886,300.65 h 16.42 l 28.24,45.2 v -45.2 h 12.81 V 363.8 H 927.09 L 898.85,318.42 V 363.8 H 886 Z"
       id="path54"
       inkscape:connector-curvature="0" />
    <path
       d="m 954.7,300.65 h 51.79 v 11.64 H 987 V 363.8 H 974.19 V 312.29 H 954.7 Z"
       id="path56"
       inkscape:connector-curvature="0" />
    <path
       d="m 87.61,437.55 c 3.79,4.87 8.84,7.76 14,7.76 5.16,0 8.12,-2.71 8.12,-7.31 0,-11.28 -28.88,-8.75 -28.88,-29.77 0,-10 8.21,-18.32 20.21,-18.32 9.48,0 16.79,4.24 22.11,10.65 l -9.39,8.44 c -3.7,-4.78 -7.85,-7.85 -12.64,-7.85 -4.42,0 -7.3,2.89 -7.3,6.59 0,11.27 28.87,8.66 28.87,30 -0.18,11.73 -9.39,18.95 -20.93,18.95 -10.65,0 -17.87,-3.88 -23.46,-10.56 z"
       id="path58"
       inkscape:connector-curvature="0" />
    <path
       d="m 172.69,391.72 h 12.82 v 38.43 c 0,16.6 -9.75,26.53 -25.63,26.53 -15.88,0 -25.53,-9.93 -25.53,-26.53 v -38.43 h 12.81 v 39.52 c 0,8.48 4.78,13.44 12.81,13.44 7.85,0 12.72,-5 12.72,-13.44 z"
       id="path60"
       inkscape:connector-curvature="0" />
    <path
       d="m 201.39,391.72 h 20.84 c 13.89,0 22.38,7.12 22.38,18.85 0,11.73 -8.49,18.77 -22.38,18.77 h -8 v 25.54 h -12.84 z m 12.81,10.91 v 15.79 h 8.57 c 5.41,0 8.66,-2.88 8.66,-8 0,-4.78 -3.25,-7.76 -8.66,-7.76 z"
       id="path62"
       inkscape:connector-curvature="0" />
    <path
       d="M 255.16,391.72 H 292 v 10.91 h -24 v 14.62 h 20.4 v 10.92 H 268 V 444 h 24 v 10.92 h -36.84 z m 12.45,-5.42 10.2,-12.18 H 291 l -11.75,12.18 z"
       id="path64"
       inkscape:connector-curvature="0" />
    <path
       d="m 306.86,391.72 h 19.31 c 13.9,0 22.47,7.12 22.47,18.85 0,7.58 -3.7,13.27 -10.11,16.34 l 19.85,28 H 343 l -16.78,-25.54 h -6.58 v 25.54 h -12.78 z m 12.82,10.91 v 15.79 h 7.21 c 5.42,0 8.58,-2.88 8.58,-8 0,-4.78 -3.16,-7.76 -8.58,-7.76 z"
       id="path66"
       inkscape:connector-curvature="0" />
    <path
       d="m 366.32,391.72 h 12.82 v 63.16 h -12.82 z"
       id="path68"
       inkscape:connector-curvature="0" />
    <path
       d="m 396.82,391.72 h 36.81 v 10.91 h -24 v 14.62 H 430 v 10.92 H 409.63 V 444 h 24 v 10.92 h -36.81 z"
       id="path70"
       inkscape:connector-curvature="0" />
    <path
       d="m 485.42,391.72 h 12.82 v 38.43 c 0,16.6 -9.75,26.53 -25.63,26.53 -15.88,0 -25.53,-9.93 -25.53,-26.53 v -38.43 h 12.81 v 39.52 c 0,8.48 4.78,13.44 12.81,13.44 7.85,0 12.72,-5 12.72,-13.44 z"
       id="path72"
       inkscape:connector-curvature="0" />
    <path
       d="m 514.12,391.72 h 19.31 c 13.89,0 22.46,7.12 22.46,18.85 0,7.58 -3.7,13.27 -10.1,16.34 l 19.85,28 H 550.3 l -16.79,-25.54 h -6.58 v 25.54 h -12.81 z m 12.81,10.91 v 15.79 h 7.22 c 5.41,0 8.57,-2.88 8.57,-8 0,-4.78 -3.16,-7.76 -8.57,-7.76 z"
       id="path74"
       inkscape:connector-curvature="0" />
    <path
       d="m 570,469.31 8.21,-27 h 12.9 l -10.47,27 z"
       id="path76"
       inkscape:connector-curvature="0" />
    <path
       d="m 84,482.79 h 24.81 c 20,0 33.57,14.52 33.57,31.58 0,17.06 -13.54,31.63 -33.57,31.63 H 84 Z m 12.81,11.64 v 39.88 H 109 c 11.73,0 20.21,-8.76 20.21,-19.94 0,-11.18 -8.48,-19.94 -20.21,-19.94 z"
       id="path78"
       inkscape:connector-curvature="0" />
    <path
       d="m 154.74,482.79 h 36.81 v 10.92 h -24 v 14.61 h 20.39 v 10.92 H 167.55 V 535 h 24 v 11 h -36.81 z"
       id="path80"
       inkscape:connector-curvature="0" />
    <path
       d="m 229.9,482.79 h 12.81 v 51.52 h 24 V 546 H 229.9 Z"
       id="path82"
       inkscape:connector-curvature="0" />
    <path
       d="m 296.67,482.79 h 16.78 L 337.36,546 h -13.63 l -6,-16.43 h -25.3 L 286.38,546 h -13.62 z m 17.05,35.82 -8.66,-23.73 -8.66,23.73 z"
       id="path84"
       inkscape:connector-curvature="0" />
    <path
       d="m 370.56,482.79 h 19.31 c 13.9,0 22.47,7.13 22.47,18.85 0,7.58 -3.7,13.27 -10.11,16.34 l 19.85,28 H 406.74 L 390,520.41 h -6.58 V 546 h -12.86 z m 12.82,10.92 v 15.78 h 7.21 c 5.42,0 8.57,-2.88 8.57,-8 0,-4.78 -3.15,-7.75 -8.57,-7.75 z"
       id="path86"
       inkscape:connector-curvature="0" />
    <path
       d="m 430,482.79 h 36.82 v 10.92 h -24 v 14.61 h 20.39 v 10.92 H 442.84 V 535 h 24 v 11 H 430 Z"
       id="path88"
       inkscape:connector-curvature="0" />
    <path
       d="m 524.94,527.09 10.11,7.76 c -5.78,7.85 -15.16,12.9 -26.62,12.9 -19.94,0 -33.56,-15.34 -33.56,-33.38 0,-18.04 13.62,-33.37 33.56,-33.37 11.46,0 20.84,5.15 26.62,12.81 l -10.11,7.85 A 19.75,19.75 0 0 0 508.43,493 c -11.91,0 -20.39,9.3 -20.39,21.39 0,12.09 8.48,21.38 20.39,21.38 a 19.75,19.75 0 0 0 16.51,-8.68 z"
       id="path90"
       inkscape:connector-curvature="0" />
    <path
       d="M 546.15,482.79 H 559 V 508 h 31.85 v -25.21 h 12.81 V 546 H 590.81 V 519.6 H 559 V 546 h -12.85 z"
       id="path92"
       inkscape:connector-curvature="0" />
    <path
       d="m 621.31,482.79 h 36.81 v 10.92 h -24 v 14.61 h 20.39 v 10.92 H 634.12 V 535 h 24 v 11 h -36.81 z"
       id="path94"
       inkscape:connector-curvature="0" />
    <path
       d="m 673,482.79 h 19.31 c 13.89,0 22.46,7.13 22.46,18.85 0,7.58 -3.7,13.27 -10.1,16.34 l 19.85,28 h -15.33 l -16.78,-25.54 h -6.59 V 546 H 673 Z m 12.81,10.92 v 15.78 H 693 c 5.41,0 8.57,-2.88 8.57,-8 0,-4.78 -3.16,-7.75 -8.57,-7.75 z"
       id="path96"
       inkscape:connector-curvature="0" />
    <path
       d="m 776.5,527.09 10.1,7.76 c -5.77,7.85 -15.15,12.9 -26.61,12.9 -19.94,0 -33.57,-15.34 -33.57,-33.38 0,-18.04 13.63,-33.37 33.58,-33.37 11.46,0 20.84,5.15 26.61,12.81 l -10.1,7.85 A 19.75,19.75 0 0 0 760,493 c -11.91,0 -20.39,9.3 -20.39,21.39 0,12.09 8.48,21.38 20.39,21.38 a 19.75,19.75 0 0 0 16.5,-8.68 z"
       id="path98"
       inkscape:connector-curvature="0" />
    <path
       d="m 797.7,482.79 h 12.82 V 508 h 31.85 v -25.21 h 12.81 V 546 H 842.37 V 519.6 H 810.52 V 546 H 797.7 Z"
       id="path100"
       inkscape:connector-curvature="0" />
    <path
       d="m 872.86,482.79 h 36.82 v 10.92 h -24 v 14.61 h 20.39 v 10.92 H 885.68 V 535 h 24 v 11 h -36.82 z"
       id="path102"
       inkscape:connector-curvature="0" />
    <path
       d="m 84,573.86 h 36.81 v 10.92 h -24 v 14.61 h 20.39 v 10.92 H 96.81 v 15.79 h 24 V 637 H 84 Z"
       id="path104"
       inkscape:connector-curvature="0" />
    <path
       d="m 130.56,573.86 h 51.79 V 585.5 H 162.86 V 637 h -12.81 v -51.5 h -19.49 z"
       id="path106"
       inkscape:connector-curvature="0" />
    <path
       d="m 217.09,573.86 h 24.81 c 20,0 33.56,14.53 33.56,31.58 0,17.05 -13.53,31.56 -33.56,31.56 h -24.81 z m 12.81,11.64 v 39.88 h 12.18 c 11.73,0 20.21,-8.75 20.21,-19.94 0,-11.19 -8.48,-19.94 -20.21,-19.94 z"
       id="path108"
       inkscape:connector-curvature="0" />
    <path
       d="m 287.83,573.86 h 36.81 v 10.92 h -24 v 14.61 H 321 v 10.92 h -20.36 v 15.79 h 24 V 637 h -36.81 z"
       id="path110"
       inkscape:connector-curvature="0" />
    <path
       d="m 363,573.86 h 12.8 v 51.52 h 24 V 637 H 363 Z"
       id="path112"
       inkscape:connector-curvature="0" />
    <path
       d="m 397.09,599.84 8.12,-26 h 13 l -10.46,26 z"
       id="path114"
       inkscape:connector-curvature="0" />
    <path
       d="m 428.13,573.86 h 12.81 V 637 h -12.81 z"
       id="path116"
       inkscape:connector-curvature="0" />
    <path
       d="m 458.63,573.86 h 16.42 l 28.24,45.2 v -45.2 H 516.1 V 637 H 499.68 L 471.44,591.61 V 637 h -12.81 z"
       id="path118"
       inkscape:connector-curvature="0" />
    <path
       d="m 533.79,573.86 h 16.42 l 28.24,45.2 v -45.2 h 12.81 V 637 H 574.84 L 546.6,591.63 V 637 h -12.81 z"
       id="path120"
       inkscape:connector-curvature="0" />
    <path
       d="m 670.57,605.44 c 0,18 -13.62,33.38 -33.47,33.38 -19.85,0 -33.57,-15.34 -33.57,-33.38 0,-18.04 13.63,-33.39 33.57,-33.39 19.94,0 33.47,15.34 33.47,33.39 z m -13.17,0 c 0,-12.09 -8.48,-21.39 -20.3,-21.39 -11.82,0 -20.39,9.3 -20.39,21.39 0,12.09 8.48,21.38 20.39,21.38 11.91,0 20.3,-9.29 20.3,-21.38 z"
       id="path122"
       inkscape:connector-curvature="0" />
    <path
       d="m 687.08,573.86 18.68,49.35 18.68,-49.35 h 13.62 L 714.15,637 h -16.78 l -23.91,-63.16 z"
       id="path124"
       inkscape:connector-curvature="0" />
    <path
       d="M 758.18,573.86 H 775 L 798.87,637 h -13.62 l -6,-16.42 h -25.31 l -6,16.42 h -13.67 z m 17.06,35.82 -8.67,-23.68 -8.66,23.73 z"
       id="path126"
       inkscape:connector-curvature="0" />
    <path
       d="M 795.81,573.86 H 847.6 V 585.5 H 828.11 V 637 H 815.3 v -51.5 h -19.49 z"
       id="path128"
       inkscape:connector-curvature="0" />
    <path
       d="m 858.88,573.86 h 12.81 V 637 h -12.81 z"
       id="path130"
       inkscape:connector-curvature="0" />
    <path
       d="m 951,605.44 c 0,18 -13.63,33.38 -33.47,33.38 -19.84,0 -33.53,-15.34 -33.53,-33.38 0,-18.04 13.63,-33.39 33.57,-33.39 19.94,0 33.43,15.34 33.43,33.39 z m -13.17,0 c 0,-12.09 -8.48,-21.39 -20.3,-21.39 -11.82,0 -20.4,9.3 -20.4,21.39 0,12.09 8.49,21.38 20.4,21.38 11.91,0 20.3,-9.29 20.3,-21.38 z"
       id="path132"
       inkscape:connector-curvature="0" />
    <path
       d="m 963.27,573.86 h 16.42 l 28.24,45.2 v -45.2 h 12.82 V 637 h -16.42 L 976.08,591.61 V 637 h -12.81 z"
       id="path134"
       inkscape:connector-curvature="0" />
    <path
       d="m 289.52,811.7 c 1.71,0 3.19,1.29 2.41,4.58 l -8,1.85 c 1.39,-3.7 3.71,-6.43 5.56,-6.43 m 4.4,12.82 h -1.58 c -2,2.37 -4.12,4.22 -6.25,4.22 -2.13,0 -3.29,-1.3 -3.29,-4.22 a 17.48,17.48 0 0 1 0.37,-3.51 L 296,816.79 c 2.5,-5.93 -0.51,-8.52 -4,-8.52 -6.06,0 -13,10.14 -13,19 0,4 1.9,6.16 4.86,6.16 3.47,0 7.08,-3.38 10.05,-8.94 m -2.55,-18.61 9,-8.43 v -1 h -4.86 l -5.56,9.4 z m -27.69,5.93 h 4.26 l -6.76,18.47 c -0.6,1.58 0.23,3.15 1.85,3.15 3.84,0 10.05,-3.8 12.23,-9 h -1.21 c -1.71,1.8 -5,4.21 -7.82,4.72 l 6.2,-17.36 h 6.35 l 0.78,-2.64 h -6.15 l 2.37,-6.67 h -2.46 l -4.4,6.67 -5.23,0.74 z m -5.74,-0.88 a 1.9,1.9 0 0 0 -1.53,-2.69 c -3.7,0 -8.1,3.34 -9.86,8 h 1.2 c 1.2,-1.71 3.24,-3.61 5.14,-3.93 l -7.08,18.43 a 1.84,1.84 0 0 0 1.52,2.68 c 3.52,0 7.64,-3.38 9.4,-8 h -1.2 c -1.2,1.71 -3.24,3.61 -5.14,3.94 z m 1.29,-9.26 a 3.06,3.06 0 1 0 -3.05,-3.06 3,3 0 0 0 3.05,3.06 M 218.44,830 c -0.93,2.08 0.05,3.42 2.08,3.42 a 2.07,2.07 0 0 0 2.32,-1.66 l 4.91,-13 C 230,816 234.69,813 236.54,813 c 1.35,0 1.16,1.11 0.28,2.78 l -7.55,14.49 a 2.13,2.13 0 0 0 1.86,3.15 c 3.7,0 8.1,-3.33 9.86,-8 h -1.2 c -1.21,1.71 -3.25,3.61 -5.14,3.94 l 6.48,-13.11 a 10.53,10.53 0 0 0 1.25,-4.49 3.19,3.19 0 0 0 -3.43,-3.52 c -3.19,0 -6.43,3.61 -10.28,8.06 v -3.4 c 0,-2.45 -0.78,-4.63 -3,-4.63 -1.39,0 -2.73,1.21 -4,2.92 v 0.46 c 2.41,-0.14 3.47,3.47 1.76,7.27 z m -0.09,-16.12 c 0.88,-3 0.41,-5.65 -1.9,-5.65 -2.73,0 -3.43,2.08 -6.21,8.06 v -3.39 c 0,-2.45 -0.78,-4.63 -3,-4.63 -2.59,0 -4.95,4 -6.76,8 h 1.21 c 1.25,-1.8 2.4,-2.87 3.33,-2.87 1.11,0 1.71,1.71 0,5.51 L 200,830 c -0.93,2.08 0.05,3.42 2.08,3.42 a 2.07,2.07 0 0 0 2.32,-1.66 l 4.91,-13 c 1.39,-1.71 2.64,-3.19 4.21,-4.86 z m -28.44,-2.22 c 1.72,0 3.2,1.29 2.41,4.58 l -8,1.85 c 1.39,-3.7 3.7,-6.43 5.55,-6.43 m 4.4,12.82 h -1.57 c -2,2.37 -4.12,4.22 -6.25,4.22 -2.13,0 -3.29,-1.3 -3.29,-4.22 a 17.48,17.48 0 0 1 0.37,-3.51 l 12.83,-4.22 c 2.5,-5.93 -0.51,-8.52 -4,-8.52 -6.07,0 -13,10.14 -13,19 0,4 1.9,6.16 4.86,6.16 3.48,0 7.09,-3.38 10.05,-8.94 m -30.23,-12.68 h 4.26 l -6.77,18.47 c -0.6,1.58 0.24,3.15 1.86,3.15 3.84,0 10,-3.8 12.22,-9 h -1.2 c -1.72,1.8 -5,4.21 -7.83,4.72 l 6.21,-17.36 h 6.34 l 0.79,-2.64 h -6.12 l 2.36,-6.67 h -2.45 l -4.4,6.67 -5.23,0.74 z m -23.39,14.4 c 0,-5.7 6.34,-13.43 9.91,-13.43 a 7.83,7.83 0 0 1 2.18,0.28 l -3.67,9.98 c -2.13,2.59 -5.42,5.74 -6.94,5.74 -0.88,0 -1.44,-0.74 -1.44,-2.45 m 19.5,-19 -1.95,-0.14 -2.18,2.13 h -0.46 c -10.56,0 -19.68,11.85 -19.68,20.46 a 3.51,3.51 0 0 0 3.8,3.8 c 2.73,0 5.42,-3.89 8.43,-8.06 l -0.14,1.49 c -0.37,4.26 0.92,6.57 3.15,6.57 2.59,0 5,-4 6.76,-8 h -1.21 c -1.25,1.81 -2.41,2.87 -3.33,2.87 -0.92,0 -1.67,-1.76 0,-5.51 z M 137.68,814 c 0.88,-3 0.42,-5.65 -1.9,-5.65 -2.73,0 -3.42,2.08 -6.2,8.06 v -3.51 c 0,-2.45 -0.79,-4.63 -3,-4.63 -2.6,0 -5,4 -6.76,8 H 121 c 1.25,-1.8 2.41,-2.87 3.33,-2.87 1.12,0 1.72,1.71 0,5.51 l -5,11.12 c -0.92,2.08 0,3.42 2.09,3.42 1.25,0 1.8,-0.32 2.31,-1.66 l 4.91,-13 c 1.39,-1.71 2.64,-3.19 4.22,-4.86 z m -35.47,18.62 0.46,-1.44 c -6.16,-1.16 -6.94,-1.16 -4.49,-7.87 l 2.5,-6.9 h 6.81 c 3.06,0 3.1,1.25 2.64,4.58 h 1.76 L 116,809.75 h -1.8 c -1.52,2.64 -2.73,4.59 -6.06,4.59 h -6.72 l 3.57,-9.77 c 1.11,-3.11 1.76,-3.75 5.93,-3.75 h 3 c 4.31,0 4.82,1.15 4.82,5.51 h 1.71 l 1.43,-7.6 h -25.6 l -0.46,1.44 c 5,1 5.42,1.48 3.1,7.87 l -5.55,15.19 c -2.32,6.34 -3.29,6.85 -9,7.87 L 84,832.54 Z"
       id="path136"
       inkscape:connector-curvature="0" />
    <path
       d="m 227.52,753.81 c 1.71,0 3.19,1.3 2.4,4.59 l -8,1.85 c 1.39,-3.7 3.7,-6.44 5.56,-6.44 m 4.39,12.83 h -1.57 c -2,2.36 -4.12,4.22 -6.25,4.22 -2.13,0 -3.29,-1.3 -3.29,-4.22 a 17.58,17.58 0 0 1 0.37,-3.52 L 234,758.91 c 2.5,-5.93 -0.51,-8.52 -4,-8.52 -6.07,0 -13,10.14 -13,19 0,4 1.9,6.16 4.87,6.16 3.47,0 7.08,-3.38 10,-8.94 m -2.5,-18.61 9,-8.43 v -1 H 233.5 L 228,748 Z m -27.69,6 h 4.26 l -6.76,18.48 c -0.61,1.57 0.23,3.15 1.85,3.15 3.84,0 10.05,-3.8 12.22,-9 h -1.2 c -1.71,1.81 -5,4.22 -7.83,4.73 L 210.43,754 h 6.34 l 0.79,-2.64 h -6.16 l 2.36,-6.66 h -2.45 l -4.4,6.66 -5.23,0.74 z m -5.75,-0.88 a 1.89,1.89 0 0 0 -1.52,-2.68 c -3.71,0 -8.11,3.33 -9.87,8 h 1.21 c 1.2,-1.71 3.24,-3.61 5.14,-3.94 l -7.09,18.43 a 1.85,1.85 0 0 0 1.53,2.69 c 3.52,0 7.64,-3.38 9.4,-8 h -1.2 c -1.21,1.71 -3.24,3.61 -5.14,3.93 z m 1.3,-9.26 a 3.05,3.05 0 0 0 3.06,-3 3.09,3.09 0 0 0 -3.06,-3.06 3.05,3.05 0 0 0 -3,3.06 3,3 0 0 0 3,3 m -24.63,27.64 12.92,-33.85 -0.42,-0.51 -8.1,0.93 v 1 l 1.57,1.21 c 1.44,1.11 1,2.17 -0.32,5.6 l -10.1,26.58 a 2.13,2.13 0 0 0 1.85,3.15 c 3.71,0 7.64,-3.34 9.4,-8 h -1.2 a 10.45,10.45 0 0 1 -5.6,3.93 m -24.55,-3.15 c 0,-5.69 6.35,-13.42 9.91,-13.42 a 8.24,8.24 0 0 1 2.18,0.27 l -3.7,9.87 c -2.13,2.59 -5.42,5.74 -6.95,5.74 -0.88,0 -1.44,-0.74 -1.44,-2.46 m 19.5,-19 -2,-0.14 -2.17,2.13 H 163 c -10.55,0 -19.68,11.86 -19.68,20.47 a 3.51,3.51 0 0 0 3.8,3.8 c 2.73,0 5.42,-3.89 8.43,-8.06 l -0.14,1.48 c -0.37,4.26 0.93,6.58 3.15,6.58 2.59,0 4.95,-4 6.76,-8 h -1.2 c -1.25,1.8 -2.41,2.87 -3.34,2.87 -0.93,0 -1.66,-1.76 0,-5.51 z m -47.14,30.75 c 0,-2.45 2.36,-4 5.74,-5.33 a 41.23,41.23 0 0 0 5,1.9 c 3.52,1.16 4.86,1.62 4.86,2.69 0,2.27 -3.84,4 -9.07,4 -4.4,0 -6.53,-0.92 -6.53,-3.24 m 9.58,-15 c -1.52,0 -2.13,-1.29 -2.13,-2.78 0,-4.12 2.23,-10.18 5.7,-10.18 1.53,0 2.13,1.29 2.13,2.78 0,4.12 -2.22,10.18 -5.7,10.18 m 10,12.69 c 0,-3 -2.64,-4 -6.94,-5.32 -3.71,-1.12 -5.37,-1.44 -5.37,-2.64 0,-1 0.78,-2.13 2.36,-3 a 10.8,10.8 0 0 0 10,-10.37 6.33,6.33 0 0 0 -0.51,-2.55 h 5.14 l 0.79,-2.64 h -8.15 a 6.3,6.3 0 0 0 -3.29,-0.92 10.73,10.73 0 0 0 -10.6,10.23 6,6 0 0 0 4.9,6.16 c -3,1.34 -4.67,2.92 -4.67,4.77 a 2.91,2.91 0 0 0 1.25,2.5 c -7,2 -9.68,4.35 -9.68,7.64 0,3.29 4.21,4.54 9.21,4.54 8.48,0 15.56,-4.59 15.56,-8.43 M 107.67,758 c 3.06,0 3.11,1.25 2.64,4.59 h 1.76 l 4.08,-11.16 h -1.76 c -1.53,2.64 -2.73,4.58 -6.07,4.58 h -6.71 l 3.38,-9.31 c 1.11,-3.1 1.76,-3.7 5.93,-3.7 h 3 c 4.31,0 4.82,1.16 4.82,5.46 h 1.71 l 1.43,-7.59 h -25.6 l -0.46,1.43 c 5,1 5.42,1.49 3.1,7.88 l -5.55,15.18 c -2.32,6.35 -3.29,6.86 -9,7.88 L 84,774.65 h 28.4 l 5.09,-8.06 h -1.94 c -3.24,3.06 -7.32,6 -13,6 -7.54,0 -6.85,-0.33 -4.35,-7.23 l 2.69,-7.36 z m 3.71,-19.4 9,-6.21 v -1 H 115 l -5,7.18 z"
       id="path138"
       inkscape:connector-curvature="0" />
    <path
       d="m 224.5,695.93 c 1.72,0 3.2,1.3 2.41,4.58 l -8,1.86 c 1.39,-3.71 3.7,-6.44 5.55,-6.44 m 4.4,12.83 h -1.57 c -2,2.36 -4.12,4.21 -6.25,4.21 -2.13,0 -3.29,-1.3 -3.29,-4.21 a 17.5,17.5 0 0 1 0.37,-3.52 L 231,701 c 2.5,-5.92 -0.51,-8.52 -4,-8.52 -6.07,0 -13,10.14 -13,19 0,4 1.9,6.15 4.87,6.15 3.47,0 7.08,-3.38 10,-8.93 m -2.54,-18.62 9,-8.43 v -1 h -4.87 l -5.55,9.4 z m -26.54,5.93 h 3.38 l -6.76,18.48 c -0.6,1.57 0.23,3.14 1.86,3.14 3.84,0 10,-3.79 12.22,-9 h -1.2 c -1.72,1.81 -5,4.22 -7.83,4.72 l 6.21,-17.36 H 214 l 0.79,-2.64 h -6.16 l 2.36,-6.67 h -2.45 l -4.4,6.67 -4.36,0.74 z m -3.33,2.08 c 0.88,-3 0.42,-5.65 -1.9,-5.65 -2.73,0 -3.43,2.09 -6.2,8.06 v -3.43 c 0,-2.45 -0.79,-4.63 -3,-4.63 -2.6,0 -5,4 -6.76,8 h 1.2 c 1.25,-1.8 2.41,-2.87 3.33,-2.87 1.11,0 1.72,1.72 0,5.51 l -5,11.12 c -0.92,2.08 0,3.42 2.09,3.42 1.25,0 1.8,-0.32 2.31,-1.66 l 4.91,-13 c 1.39,-1.72 2.64,-3.2 4.21,-4.87 z m -28.43,-2.22 c 1.71,0 3.19,1.3 2.41,4.58 l -8,1.86 c 1.39,-3.71 3.71,-6.44 5.56,-6.44 m 4.4,12.83 h -1.58 c -2,2.36 -4.12,4.21 -6.25,4.21 -2.13,0 -3.29,-1.3 -3.29,-4.21 a 17.5,17.5 0 0 1 0.37,-3.52 L 174.54,701 c 2.5,-5.92 -0.51,-8.52 -4,-8.52 -6.06,0 -13,10.14 -13,19 0,4 1.89,6.15 4.86,6.15 3.47,0 7.08,-3.38 10.05,-8.93 M 141,713.94 c -1.25,0 -3,-1.15 -3,-2.17 a 24.94,24.94 0 0 1 1.25,-3.57 l 2.08,-5.51 c 2.23,-2.64 5.61,-5.46 7.5,-5.46 1.16,0 2,0.74 2,2.45 0,5.05 -4.72,14.26 -9.82,14.26 m 14.59,-16.3 c 0,-3.75 -1.39,-5.14 -4,-5.14 -3.24,0 -6.3,3.43 -9.35,7.6 l 7.75,-20.33 -0.42,-0.51 -8.1,0.93 v 1 l 1.57,1.2 c 1.44,1.11 1,2.27 -0.32,5.61 l -8.34,21.48 a 24.65,24.65 0 0 0 -1.34,3.94 c 0,2.22 3,4.3 5.74,4.3 6.3,0 16.81,-11.34 16.81,-20.05 m -25.19,-2.45 a 1.9,1.9 0 0 0 -1.53,-2.69 c -3.7,0 -8.1,3.34 -9.86,8 h 1.2 c 1.21,-1.71 3.25,-3.61 5.14,-3.93 l -7.08,18.4 a 1.84,1.84 0 0 0 1.53,2.68 c 3.52,0 7.64,-3.38 9.4,-8 H 128 c -1.2,1.72 -3.24,3.62 -5.14,3.94 z m 1.3,-9.26 a 3.06,3.06 0 1 0 -3.06,-3.06 3.05,3.05 0 0 0 3.06,3.06 m -18.66,-3 H 96.19 l -0.46,1.44 c 5,1 5.42,1.48 3.1,7.87 l -5.46,15.19 c -2.32,6.34 -3.29,6.85 -9,7.87 L 84,716.77 h 25.65 l 5.56,-9.91 h -2 c -3.15,3.47 -6.85,7.82 -12.55,7.82 -4.3,0 -4.81,-0.74 -2.5,-7.22 l 5.47,-15.19 c 2.27,-6.34 3.28,-6.85 9,-7.87 z"
       id="path140"
       inkscape:connector-curvature="0" />
    <path
       class="cls-1"
       d="m 179.13,157.76 c 0.9,-0.9 1.81,-1.87 2.71,-2.84 v 0 a 52.74,52.74 0 0 1 5.29,-5.39 17.61,17.61 0 0 1 1.72,-1.38 c 0.16,-0.16 0.16,-0.48 0.32,-0.64 -0.8,0.32 -1.27,1 -2.06,1.27 -0.16,0 -0.32,-0.16 -0.16,-0.31 l 1.69,-1.27 h -0.11 c -0.16,0 -0.16,-0.16 -0.16,-0.32 -2.06,-0.32 -3.64,1.11 -5.07,2.38 -0.31,0.16 -0.63,-0.16 -0.79,-0.16 -2.38,0.79 -4.12,2.85 -6.5,3.8 v -0.31 c -1,0.31 -1.87,0.89 -2.85,1.11 a 17.27,17.27 0 0 1 -4,0.15 55.25,55.25 0 0 0 -5.76,1 h -0.17 a 13.4,13.4 0 0 0 -2.95,1.19 l -0.11,0.06 -0.23,0.28 a 3.81,3.81 0 0 1 -1.09,1 15.46,15.46 0 0 0 -2.62,2 0.45,0.45 0 0 1 -0.26,0.09 c -0.85,0.81 -1.69,1.64 -2.55,2.44 a 0.78,0.78 0 0 1 -0.49,0.06 v 0 l 0.09,-0.15 0.41,-0.67 c 0.15,-0.25 0.31,-0.49 0.47,-0.73 0.16,-0.24 0.43,-0.66 0.67,-1 a 0.14,0.14 0 0 0 0,-0.21 0.3,0.3 0 0 0 -0.21,-0.08 14.59,14.59 0 0 1 2.66,-2 v 0 c -0.11,0 -0.26,0 -0.18,-0.16 0.08,-0.16 0.18,-0.29 0.27,-0.43 0.09,-0.14 0,-0.1 0.05,-0.14 l -0.12,-0.13 a 6,6 0 0 0 -0.74,0.52 c -0.38,0.34 -0.68,1 -1.26,1 a 1.93,1.93 0 0 1 -0.24,0 0.38,0.38 0 0 1 -0.16,-0.06 v 0 -0.05 0 l 0.08,-0.13 a 1,1 0 0 1 0.08,-0.14 l 0.06,-0.11 a 2,2 0 0 1 0.11,-0.2 c 0,0 0.05,-0.1 0.08,-0.14 l 0.21,-0.35 0.09,-0.17 c 0.06,-0.1 0.12,-0.19 0.17,-0.29 a 0.18,0.18 0 0 0 -0.12,-0.28 3.83,3.83 0 0 1 1.09,-1 h -0.05 c 0.61,-0.3 1.21,-0.68 1.82,-1 l 0.26,-0.22 a 10.73,10.73 0 0 0 -2.52,1.24 1.32,1.32 0 0 0 -0.27,0.15 0.4,0.4 0 0 1 -0.39,-0.15 0.19,0.19 0 0 1 0,-0.12 c 0.16,-0.31 0.64,-0.47 1,-0.79 0.16,0 0.32,0 0.32,0.16 5.07,-4 12,-3 17.91,-5.07 l 1.42,-0.95 c 0.8,-0.32 1.43,-1.11 2.38,-1.59 a 6.9,6.9 0 0 0 2.69,-3.64 0.57,0.57 0 0 0 -0.15,-0.32 24.38,24.38 0 0 1 -7,5.23 c -3.33,1.74 -7,1.43 -10.46,1.9 0.16,-0.31 0.48,-0.31 0.8,-0.31 0,-0.48 0.31,-0.64 0.63,-0.95 h 0.48 c 0.15,0 0.15,-0.32 0.31,-0.32 0.32,0 0.79,-0.16 0.64,-0.16 -0.48,-0.63 -1.43,0.48 -2.22,0 0.31,-0.32 0.16,-0.79 0.47,-1 h 0.64 a 1.09,1.09 0 0 1 0.31,-0.63 c 2.38,-1.43 4.6,-2.54 6.82,-3.81 -0.48,0 -0.79,0.48 -1.27,0.16 0.32,0 0,-0.48 0.32,-0.48 1.74,-0.47 3.17,-1.42 4.91,-2.06 -0.63,0 -1.11,0.48 -1.74,0 0.31,-0.15 0.47,-0.47 1,-0.47 v -0.48 c 0,-0.15 0.16,-0.15 0.31,-0.15 a 0.56,0.56 0 0 1 -0.31,-0.16 c 0.16,-0.32 0.63,-0.16 0.95,-0.48 -0.16,0 -0.48,0 -0.48,-0.16 a 3.18,3.18 0 0 1 2.06,-0.95 c -0.16,-0.32 -0.63,0 -0.63,-0.32 0,-0.15 0.16,-0.15 0.32,-0.15 h -0.32 c -0.32,-0.16 -0.16,-0.48 -0.16,-0.64 1,-1.11 1,-2.53 1.43,-3.8 -0.16,0 -0.32,0 -0.32,-0.16 -1.58,1.74 -4.12,2.38 -6.5,3 h -0.79 a 3.18,3.18 0 0 1 -2.69,-0.16 11,11 0 0 1 -1.59,-1.26 18.08,18.08 0 0 0 -4,-1.91 35.71,35.71 0 0 0 -12.2,-1.74 c 1.74,-1 3.66,-1 5.54,-1.58 2.7,-0.8 5.23,-1.75 8.09,-1.59 a 5.3,5.3 0 0 0 -1.59,0 c -2.22,-0.16 -4.44,0.48 -6.81,1 -1.59,0.32 -3,0.95 -4.6,1.27 -1,0.32 -1.43,1.27 -2.53,1.11 v -0.48 c 1.58,-1.9 3.48,-3.8 6,-4 2.85,-0.47 5.54,0 8.4,0.32 a 39.75,39.75 0 0 1 6,1.11 c 0.79,0 0.95,1.27 1.58,1.42 1,0.32 1.91,0 2.86,0.64 0,-0.32 -0.16,-0.64 0,-0.95 0.63,-0.64 1.42,0.16 2.06,-0.16 1.26,-0.79 -1.11,-2.22 -1.75,-3.33 a 0.56,0.56 0 0 1 0.16,-0.32 c 1.27,1.11 2.22,2.38 3.8,3.17 0.8,0.32 2.7,0.8 2.38,-0.16 -0.79,-1.74 -2.38,-3.16 -3.64,-4.75 v -0.63 c -0.32,0 -0.32,-0.16 -0.48,-0.32 v -0.63 c -0.63,-0.32 -0.47,-1 -0.79,-1.43 -0.48,-0.79 -0.16,-1.9 -0.48,-2.85 a 17.57,17.57 0 0 1 -0.63,-2.7 c -0.48,-2.69 -1.11,-5.07 -1.43,-7.6 -0.31,-3 1.75,-5.39 3.17,-8.09 a 13.61,13.61 0 0 1 4.44,-5.07 14,14 0 0 1 3,-5.07 13.22,13.22 0 0 1 4.89,-3.17 41.61,41.61 0 0 1 4.22,-1.61 H 83.78 v 83.87 h 77 c 3,-2.17 6,-3.21 10.24,-5.28 1.98,-0.9 6.57,-2.99 8.11,-4.53 z m -24.37,-11.35 c -0.32,0 -0.95,0.15 -0.79,-0.16 0.15,-0.8 1.26,-0.8 1.9,-1.11 0.31,-0.16 0.79,-0.48 1.11,-0.32 0.31,0.48 0.79,0.32 1.11,0.63 -0.96,0.96 -2.22,0.48 -3.33,0.96 z m -24.25,-3.49 a 0.56,0.56 0 0 1 -0.16,-0.32 48.47,48.47 0 0 0 5.07,-8.08 22,22 0 0 0 5.39,-4.44 30.85,30.85 0 0 1 8.88,-7 6.09,6.09 0 0 1 4.12,0.16 c -0.48,0.63 -1.27,0.47 -1.91,1 a 0.58,0.58 0 0 1 -0.47,-0.16 0.59,0.59 0 0 0 0.16,-0.48 c -1.59,1.75 -3.81,2.54 -5.07,4.6 -1,1.58 -1.59,3.65 -3.65,4.12 -0.63,0.16 0.16,-0.47 -0.16,-0.32 -4.91,3 -8.4,6.64 -12.2,10.92 z m 13.15,-10.46 c -0.15,0.32 -0.33,0.35 -0.47,0.63 a 1.25,1.25 0 0 1 -0.64,0.64 c -0.15,0 -0.31,0 -0.31,-0.16 a 1.93,1.93 0 0 1 1.27,-1.43 c 0.15,0 0.15,0.16 0.15,0.32 z M 151,156.2 a 1.33,1.33 0 0 1 -0.39,0.47 c 0.2,0 0.34,0.12 0.21,0.24 a 3.44,3.44 0 0 1 -1.2,0.84 h -0.24 l -0.59,0.56 c -0.19,0.16 -1.06,0 -0.8,-0.19 0.41,-0.36 0.78,-0.75 1.17,-1.11 a 5.64,5.64 0 0 0 0.66,-0.63 2.26,2.26 0 0 1 0.34,-0.35 c 0.15,-0.03 0.99,-0.14 0.84,0.17 z m -2.84,-1.31 v 0 c -0.59,0.42 -1.18,0.84 -1.81,1.21 -0.63,0.37 -1.38,0.69 -2.09,1 0,0 0,0 0,0 a 0.2,0.2 0 0 0 -0.26,-0.07 7.61,7.61 0 0 0 -1.6,1.22 l -0.22,0.21 v 0 l -0.23,0.23 v 0 0 a 4.26,4.26 0 0 0 -0.34,0.37 1.1,1.1 0 0 1 -0.21,0.22 c -0.1,0.07 -0.37,0.07 -0.35,-0.12 v 0 l -0.28,0.15 -0.25,0.13 a 0.17,0.17 0 0 0 -0.1,0 h -0.12 l -0.57,0.49 a 8.44,8.44 0 0 0 -0.92,1 v 0 0 0.06 l -0.05,0.07 v 0 l -0.11,0.16 v 0 a 0.26,0.26 0 0 1 -0.13,0.06 0.86,0.86 0 0 1 -0.07,-0.1 v -0.07 c 0,-0.08 -0.09,-0.17 -0.14,-0.26 v 0 -0.07 l 0.5,-0.57 v 0 l 0.17,-0.21 0.26,-0.34 0.1,-0.12 c 0.17,-0.23 0.34,-0.45 0.49,-0.67 v 0 l 0.06,-0.1 a 4,4 0 0 0 0.22,-0.34 l 0.17,-0.31 v 0 0 -0.06 a 2.39,2.39 0 0 0 0.15,-0.37 v 0 a 0.42,0.42 0 0 0 0,-0.1 c 0,-0.06 0,-0.12 0,-0.18 v 0 0 a 1.55,1.55 0 0 0 0,-0.23 0.14,0.14 0 0 0 0,-0.11 6.22,6.22 0 0 1 0.63,-0.85 h -0.07 c -0.23,0.15 -0.38,0.35 -0.59,0.51 -0.21,0.16 -0.49,-0.09 -0.28,-0.24 0.21,-0.15 0.24,-0.22 0.36,-0.33 0.12,-0.11 0,0 0,0 a 7.74,7.74 0 0 1 0.81,-0.81 c 0.18,-0.13 0.34,-0.24 0.49,-0.37 l 0.07,-0.06 a 3.46,3.46 0 0 1 0.35,-0.4 v 0 c 1.52,-1.46 4.07,-1.4 6.07,-2.33 0.79,-0.32 1.74,0.16 2.54,0 a 2.32,2.32 0 0 1 1.42,0.32 c -1.43,0.69 -2.75,1.57 -4.05,2.38 z m 3.25,-11 c -0.16,-0.16 0.47,0 0.63,-0.32 h -1.24 c -0.16,0 -0.16,-0.16 -0.16,-0.31 -0.8,0.15 -1.75,0.47 -2.54,0.63 -1.11,0.32 -2.06,1.11 -3.33,1.43 -1.74,0.63 -3.17,2.06 -5.07,2.69 -0.16,0 -0.16,-0.16 -0.16,-0.32 0.16,-0.47 0.8,-0.63 1.11,-1.11 0,-0.15 0,-0.31 -0.16,-0.31 1.27,-1.75 3,-2.7 4.6,-4.12 v -0.48 c 0.48,-0.63 1.27,-1 1.59,-1.74 a 2.82,2.82 0 0 1 1.58,-1.43 c -0.16,-0.16 -0.48,-0.16 -0.48,-0.47 -0.63,0 -1.26,0.31 -1.9,-0.16 a 2.3,2.3 0 0 1 1,-0.57 0.52,0.52 0 0 1 -0.36,-0.23 c -0.16,-0.31 0.3,-0.67 0.79,-0.79 0.49,-0.12 1.43,-0.16 1.9,-0.63 -1.11,-0.16 -2.38,0.32 -3.49,-0.32 a 8.46,8.46 0 0 1 4,-4.75 c 0.15,0 0.47,0 0.47,0.16 a 1.54,1.54 0 0 1 -1.27,1.58 17.14,17.14 0 0 1 3.81,0.95 c -0.16,0.32 -0.48,0.16 -0.64,0.16 0.8,0.48 1.75,0.16 2.54,0.79 -0.48,0.48 -0.95,0 -1.43,0 4.92,1.43 10.15,2.54 14.27,5.71 a 44.24,44.24 0 0 1 -10.94,3.33 3.5,3.5 0 0 1 -1.27,-0.16 c 0,0.16 0,0.47 -0.16,0.47 a 2.58,2.58 0 0 0 -1.58,0.32 1.93,1.93 0 0 1 -2.09,-0.02 z"
       id="path142"
       inkscape:connector-curvature="0"
       style="fill:#000091" />
    <path
       class="cls-2"
       d="M 314.41,83.78 H 224.2 a 4,4 0 0 1 0.85,0.4 l 2.28,1.21 a 7.49,7.49 0 0 1 3,2.54 c 0.32,0.47 0.79,1.42 0.48,2.06 -0.32,0.79 -0.48,2.06 -1.27,2.37 a 5.84,5.84 0 0 1 -3.33,0.32 7.87,7.87 0 0 1 -1.9,-0.32 c 2.38,1 4.59,2.06 6.18,4.28 0.16,0.32 0.79,0.48 1.43,0.48 0.15,0 0.15,0.32 0.15,0.47 -0.31,0.32 -0.63,0.48 -0.47,1 h 0.47 c 0.8,-0.32 0.64,-1.91 1.75,-1.43 a 1.79,1.79 0 0 1 0.63,2.38 16.55,16.55 0 0 1 -1.9,1.58 1.34,1.34 0 0 0 0,1.11 5,5 0 0 1 0.79,1.9 c 0.48,1.11 0.64,2.38 1.11,3.49 a 22.38,22.38 0 0 1 1.11,7.13 c 0,1.27 -0.63,2.38 -0.16,3.64 a 13.25,13.25 0 0 0 1.75,3.33 25.55,25.55 0 0 1 1.74,2.54 c 1,1.58 2.69,3.17 1.9,5.07 -0.48,1.11 -2.22,1 -3.33,1.58 -0.95,0.8 -0.16,2.06 0.32,2.86 0.79,1.42 -1,2.37 -2.06,2.85 0.32,0.47 0.95,0.32 1.11,0.63 0.16,0.8 1,1.27 0.47,2.06 -0.63,0.95 -2.53,1.43 -1.58,2.86 0.63,1.11 0.22,2.34 -0.16,3.48 a 3.89,3.89 0 0 1 -2.85,2.38 6.41,6.41 0 0 1 -3,0.16 2.28,2.28 0 0 0 -0.95,-0.32 c -2.7,-0.32 -5.39,-1.11 -8.09,-1.11 a 9.14,9.14 0 0 0 -2.22,0.64 13.63,13.63 0 0 0 -1.91,1.69 v 0 l -0.35,0.39 -0.2,0.24 -0.14,0.16 a 15.08,15.08 0 0 0 -1.24,1.83 0.75,0.75 0 0 0 -0.07,0.12 2.53,2.53 0 0 0 -0.13,0.22 15.85,15.85 0 0 0 -1.2,2.91 c -1.07,3.63 -0.6,6.74 0.15,7.5 0.21,0.21 5.23,1.76 8.73,3.32 a 29.59,29.59 0 0 1 3.74,1.89 h 88.59 z"
       id="path144"
       inkscape:connector-curvature="0"
       style="fill:#e1000f" />
    <path
       class="cls-3"
       d="m 229.56,114.38 c 0.64,0.16 1.59,0.16 1.59,0.47 -0.32,1.27 -2.22,1.59 -3.17,2.86 h -0.48 c -0.47,0.31 -0.32,1.11 -0.79,1.11 a 2.29,2.29 0 0 0 -1.43,0.15 2.71,2.71 0 0 0 2.38,1 0.71,0.71 0 0 1 0.48,0.64 0.48,0.48 0 0 0 0.31,-0.16 c 0.16,0 0.32,0 0.32,0.16 v 0.63 c -0.48,0.64 -1.27,0.32 -1.9,0.48 a 7,7 0 0 0 3.64,0 c 1,-0.32 0,-1.9 0.64,-2.7 -0.32,0 0,-0.47 -0.32,-0.47 0.32,-0.32 0.63,-0.79 0.95,-1 a 1.12,1.12 0 0 0 0.95,-0.48 c 0,-0.31 -0.63,-0.47 -0.47,-0.79 1,-0.63 1.74,-1.58 1.42,-2.54 -0.16,-0.47 -1.42,-0.47 -2.22,-0.79 a 5.34,5.34 0 0 0 -2.69,0.16 14,14 0 0 0 -2.38,0.63 11.14,11.14 0 0 0 -3,1.59 22.23,22.23 0 0 1 3.49,-1 10.09,10.09 0 0 1 2.68,0.05 z"
       id="path146"
       inkscape:connector-curvature="0"
       style="fill:#9d9d9c" />
  </g>
  <g
     id="zone"
     transform="translate(0.40339,0.41334544)">
    <rect
       class="cls-4"
       x="94.110001"
       y="-94.110001"
       width="916.32001"
       height="1104.53"
       transform="rotate(90,552.27,458.16)"
       id="rect149"
       style="fill:none" />
    <rect
       class="cls-4"
       x="83.779999"
       y="83.779999"
       width="936.96002"
       height="748.75"
       id="rect151"
       style="fill:none" />
  </g>
</svg>
