<svg width="63.036" height="54.878" viewBox="0 0 16.678 14.52" xmlns="http://www.w3.org/2000/svg"><g transform="translate(-39.486 -117.46)"><path d="m45.605 121.876-4.838 2.639 4.838 2.639 3.958-2.16v3.04h.88v-3.519m-7.917 1.838v1.76l3.079 1.68 3.078-1.68v-1.76l-3.078 1.68z" style="fill:#fff;fill-opacity:1;stroke-width:.439787"/><path style="fill:#00a0dc;fill-opacity:1;stroke:none;stroke-width:.143361;stroke-opacity:1;stop-color:#000" d="M40.31 119.943h10.388c.457 0 .824.418.824.937v10.163c0 .519-.367.937-.824.937H40.31c-.457 0-.824-.418-.824-.938V120.88c0-.52.367-.937.824-.937z"/><path d="m45.537 121.859-4.829 2.633 4.829 2.634 3.95-2.155v3.033h.878v-3.512m-7.9 1.835v1.756l3.072 1.676 3.072-1.676v-1.756l-3.072 1.677z" style="fill:#fff;fill-opacity:1;stroke-width:.438915"/><circle style="fill:#ff8d24;fill-opacity:1;stroke:#fff;stroke-width:.376436;stroke-linecap:round;stroke-linejoin:round;stroke-miterlimit:4;stroke-dasharray:none;stroke-opacity:1;stop-color:#000" cx="52.554" cy="121.07" r="3.421"/><path d="M52.802 118.592v.501a1.98 1.98 0 0 1 1.724 2.21 1.98 1.98 0 0 1-1.724 1.724v.495a2.471 2.471 0 0 0 2.217-2.707 2.471 2.471 0 0 0-2.217-2.222m-.496.007a2.435 2.435 0 0 0-1.32.545l.354.366a1.98 1.98 0 0 1 .966-.416v-.495m-1.67.894a2.448 2.448 0 0 0-.547 1.32h.496c.047-.351.185-.686.406-.966l-.354-.354m-.545 1.816c.05.485.24.944.547 1.32l.352-.354a1.982 1.982 0 0 1-.404-.966h-.495m1.248 1.33-.354.34c.374.311.835.507 1.32.56v-.496a1.981 1.981 0 0 1-.966-.404m1.338-2.816v1.3l1.114.661-.185.305-1.3-.78v-1.486z" style="fill:#fff;fill-opacity:1;stroke-width:.247705"/></g></svg>