<?xml version="1.0" encoding="UTF-8" standalone="no"?>
<svg
   viewBox="0 0 1105.3571 836.76"
   version="1.1"
   id="svg120"
   sodipodi:docname="logo-mesr.svg"
   inkscape:export-filename="C:\Users\arnaud\Desktop\logo-mesr.png"
   inkscape:export-xdpi="7.342607"
   inkscape:export-ydpi="7.342607"
   width="1105.3571"
   height="836.76001"
   inkscape:version="1.1.2 (0a00cf5339, 2022-02-04, custom)"
   xmlns:inkscape="http://www.inkscape.org/namespaces/inkscape"
   xmlns:sodipodi="http://sodipodi.sourceforge.net/DTD/sodipodi-0.dtd"
   xmlns="http://www.w3.org/2000/svg"
   xmlns:svg="http://www.w3.org/2000/svg">
  <sodipodi:namedview
     id="namedview122"
     pagecolor="#ffffff"
     bordercolor="#666666"
     borderopacity="1.0"
     inkscape:pageshadow="2"
     inkscape:pageopacity="0.0"
     inkscape:pagecheckerboard="0"
     showgrid="false"
     units="px"
     width="1105.3571px"
     inkscape:zoom="0.6633761"
     inkscape:cx="578.10343"
     inkscape:cy="503.48513"
     inkscape:window-width="1920"
     inkscape:window-height="1017"
     inkscape:window-x="-1928"
     inkscape:window-y="100"
     inkscape:window-maximized="1"
     inkscape:current-layer="vect" />
  <defs
     id="defs4">
    <style
       id="style2">.cls-1{fill:#000091;}.cls-2{fill:#e1000f;}.cls-3{fill:#9d9d9c;}.cls-4{fill:none;}</style>
  </defs>
  <rect
     style="fill:#ffffff;stroke:none;stroke-width:1.47039;stroke-linecap:round;stroke-linejoin:round;stop-color:#000000"
     id="rect961"
     width="1105.3571"
     height="836.76001"
     x="1.4648437e-05"
     y="0"
     inkscape:export-filename="C:\Users\arnaud\Desktop\logo-mesr.png"
     inkscape:export-xdpi="7.342607"
     inkscape:export-ydpi="7.342607" />
  <g
     id="vect"
     inkscape:export-filename="C:\Users\arnaud\Desktop\logo-mesr.png"
     inkscape:export-xdpi="7.342607"
     inkscape:export-ydpi="7.342607"
     transform="scale(0.97006246,1)">
    <path
       d="m 293.6,730.36 c 1.74,0 3.24,1.31 2.44,4.65 l -8.04,1.87 c 1.41,-3.75 3.76,-6.52 5.64,-6.52 m 4.46,13 h -1.6 c -2,2.39 -4.18,4.27 -6.34,4.27 -2.16,0 -3.33,-1.32 -3.33,-4.27 a 17.92,17.92 0 0 1 0.37,-3.57 l 13,-4.28 c 2.54,-6 -0.51,-8.64 -4.08,-8.64 -6.15,0 -13.15,10.29 -13.15,19.3 0,4 1.92,6.25 4.93,6.25 3.52,0 7.18,-3.43 10.19,-9.06 m -2.58,-18.88 9.15,-8.55 v -1 h -4.96 l -5.63,9.54 z m -28.08,6 h 4.32 l -6.86,18.73 c -0.61,1.6 0.23,3.2 1.88,3.2 3.9,0 10.19,-3.85 12.4,-9.11 h -1.23 c -1.73,1.83 -5.07,4.27 -7.93,4.79 l 6.29,-17.61 h 6.43 l 0.8,-2.68 h -6.24 l 2.39,-6.76 h -2.49 l -4.46,6.76 -5.3,0.75 z m -5.83,-0.89 c 0.52,-1.74 -0.65,-2.73 -1.55,-2.73 -3.75,0 -8.21,3.38 -10,8.13 h 1.22 c 1.22,-1.74 3.29,-3.67 5.21,-4 l -7.18,18.69 a 1.88,1.88 0 0 0 1.55,2.73 c 3.57,0 7.75,-3.43 9.53,-8.13 h -1.22 c -1.22,1.74 -3.29,3.67 -5.21,4 z m 1.32,-9.4 a 3.1,3.1 0 1 0 -3.1,-3.1 3.06,3.06 0 0 0 3.1,3.1 M 221.52,749 c -0.94,2.12 0,3.48 2.11,3.48 1.27,0 1.83,-0.33 2.35,-1.69 l 5,-13.2 c 2.3,-2.82 7,-5.82 8.92,-5.82 1.36,0 1.17,1.13 0.28,2.82 l -7.65,14.69 a 2.16,2.16 0 0 0 1.87,3.2 c 3.76,0 8.22,-3.38 10,-8.13 h -1.22 c -1.23,1.74 -3.29,3.67 -5.22,4 L 244.53,735 a 10.75,10.75 0 0 0 1.27,-4.56 3.24,3.24 0 0 0 -3.48,-3.57 c -3.24,0 -6.53,3.67 -10.42,8.17 v -3.47 c 0,-2.49 -0.8,-4.7 -3.06,-4.7 -1.41,0 -2.77,1.22 -4,3 v 0.47 c 2.45,-0.14 3.53,3.52 1.79,7.37 z m -0.1,-16.34 c 0.9,-3.05 0.43,-5.73 -1.92,-5.73 -2.77,0 -3.48,2.12 -6.29,8.17 v -3.47 c 0,-2.49 -0.8,-4.7 -3.06,-4.7 -2.63,0 -5,4.09 -6.85,8.13 h 1.22 c 1.27,-1.84 2.44,-2.92 3.38,-2.92 1.13,0 1.74,1.74 0,5.59 L 202.83,749 c -0.94,2.12 0,3.48 2.11,3.48 1.27,0 1.83,-0.33 2.35,-1.69 l 5,-13.2 c 1.41,-1.74 2.67,-3.24 4.27,-4.93 z m -28.83,-2.25 c 1.74,0 3.24,1.31 2.44,4.65 l -8.03,1.82 c 1.4,-3.75 3.75,-6.52 5.63,-6.52 m 4.46,13 h -1.59 c -2,2.39 -4.18,4.27 -6.34,4.27 -2.16,0 -3.34,-1.32 -3.34,-4.27 a 17.21,17.21 0 0 1 0.38,-3.57 l 13,-4.28 c 2.54,-6 -0.51,-8.64 -4.08,-8.64 -6.15,0 -13.15,10.29 -13.15,19.3 0,4 1.93,6.25 4.93,6.25 3.52,0 7.19,-3.43 10.19,-9.06 m -30.7,-12.86 h 4.32 l -6.86,18.73 c -0.61,1.6 0.24,3.2 1.88,3.2 3.9,0 10.19,-3.85 12.4,-9.11 h -1.22 c -1.74,1.83 -5.08,4.27 -7.94,4.79 l 6.29,-17.61 h 6.44 l 0.79,-2.68 h -6.24 l 2.39,-6.76 h -2.49 l -4.46,6.76 -5.3,0.75 z m -23.72,14.6 c 0,-5.77 6.44,-13.62 10.05,-13.62 a 8,8 0 0 1 2.21,0.29 l -3.76,10 c -2.16,2.63 -5.49,5.82 -7,5.82 -0.89,0 -1.46,-0.75 -1.46,-2.49 m 19.77,-19.3 -2,-0.14 -2.21,2.16 h -0.47 c -10.7,0 -19.95,12 -19.95,20.76 a 3.55,3.55 0 0 0 3.85,3.85 c 2.77,0 5.49,-3.95 8.54,-8.17 l -0.14,1.5 c -0.37,4.32 0.94,6.67 3.2,6.67 2.63,0 5,-4.09 6.85,-8.13 h -1.22 c -1.27,1.84 -2.44,2.92 -3.38,2.92 -0.94,0 -1.69,-1.79 0,-5.59 z m -22.82,6.81 c 0.89,-3.05 0.42,-5.73 -1.92,-5.73 -2.77,0 -3.48,2.12 -6.3,8.17 v -3.47 c 0,-2.49 -0.79,-4.7 -3.05,-4.7 -2.63,0 -5,4.09 -6.85,8.13 h 1.22 c 1.26,-1.84 2.44,-2.92 3.38,-2.92 1.12,0 1.73,1.74 0,5.59 L 121,749 c -0.94,2.12 0,3.48 2.11,3.48 1.27,0 1.83,-0.33 2.35,-1.69 l 5,-13.2 c 1.41,-1.74 2.68,-3.24 4.28,-4.93 z m -36,18.88 0.47,-1.46 c -6.24,-1.17 -7,-1.17 -4.55,-8 l 2.53,-7 H 109 c 3.1,0 3.15,1.27 2.68,4.65 h 1.79 l 4.13,-11.32 h -1.79 c -1.55,2.68 -2.77,4.65 -6.15,4.65 h -6.81 l 3.62,-9.9 c 1.13,-3.15 1.78,-3.81 6,-3.81 h 3 c 4.37,0 4.89,1.18 4.89,5.59 h 1.74 l 1.45,-7.7 H 97.64 l -0.47,1.45 c 5,1 5.49,1.51 3.15,8 l -5.64,15.4 c -2.35,6.43 -3.33,7 -9.11,8 l -0.42,1.46 z"
       id="path6" />
    <path
       d="m 230.72,671.66 c 1.74,0 3.24,1.31 2.44,4.65 l -8.07,1.88 c 1.4,-3.76 3.75,-6.53 5.63,-6.53 m 4.46,13 h -1.59 c -2,2.39 -4.18,4.27 -6.34,4.27 -2.16,0 -3.34,-1.32 -3.34,-4.27 a 17.21,17.21 0 0 1 0.38,-3.57 l 13,-4.28 c 2.53,-6 -0.52,-8.64 -4.09,-8.64 -6.15,0 -13.15,10.29 -13.15,19.3 0,4 1.93,6.25 4.93,6.25 3.52,0 7.19,-3.43 10.19,-9.06 m -2.58,-18.88 9.16,-8.55 v -1 h -4.93 l -5.64,9.53 z m -28.08,6 h 4.32 L 202,690.54 c -0.61,1.59 0.24,3.19 1.88,3.19 3.9,0 10.19,-3.85 12.4,-9.11 H 215 c -1.74,1.83 -5.07,4.27 -7.94,4.79 l 6.29,-17.61 h 6.44 l 0.8,-2.68 h -6.25 l 2.39,-6.76 h -2.48 l -4.47,6.76 -5.3,0.75 z m -5.82,-0.89 c 0.51,-1.74 -0.66,-2.73 -1.55,-2.73 -3.76,0 -8.22,3.38 -10,8.13 h 1.22 c 1.23,-1.74 3.29,-3.67 5.22,-4 L 186.39,691 a 1.87,1.87 0 0 0 1.55,2.72 c 3.57,0 7.75,-3.43 9.54,-8.13 h -1.23 c -1.22,1.74 -3.28,3.67 -5.21,4 z m 1.31,-9.4 a 3.1,3.1 0 1 0 -3.1,-3.09 3.06,3.06 0 0 0 3.1,3.09 m -25,28.11 13.1,-34.33 -0.42,-0.52 -8.22,0.94 v 1 l 1.6,1.22 c 1.45,1.13 1,2.21 -0.33,5.68 l -10.24,27 a 2.16,2.16 0 0 0 1.88,3.19 c 3.76,0 7.75,-3.38 9.53,-8.13 h -1.22 a 10.63,10.63 0 0 1 -5.68,4 m -24.89,-3.2 c 0,-5.77 6.43,-13.62 10.05,-13.62 a 8,8 0 0 1 2.21,0.29 l -3.76,10 c -2.16,2.63 -5.49,5.82 -7,5.82 -0.9,0 -1.46,-0.75 -1.46,-2.49 m 19.77,-19.3 -2,-0.14 -2.21,2.16 h -0.47 c -10.71,0 -20,12 -20,20.76 a 3.56,3.56 0 0 0 3.85,3.85 c 2.77,0 5.5,-4 8.55,-8.17 l -0.14,1.5 c -0.38,4.32 0.94,6.67 3.19,6.67 2.63,0 5,-4.09 6.86,-8.13 h -1.22 c -1.27,1.84 -2.44,2.92 -3.38,2.92 -0.94,0 -1.69,-1.79 0,-5.59 z m -47.8,31.18 c 0,-2.48 2.39,-4 5.82,-5.4 a 41.65,41.65 0 0 0 5.07,1.93 c 3.57,1.17 4.93,1.64 4.93,2.72 0,2.3 -3.9,4 -9.2,4 -4.46,0 -6.62,-0.94 -6.62,-3.29 m 9.72,-15.16 c -1.55,0 -2.16,-1.32 -2.16,-2.82 0,-4.18 2.25,-10.33 5.77,-10.33 1.55,0 2.16,1.31 2.16,2.81 0,4.18 -2.25,10.34 -5.77,10.34 M 142,696 c 0,-3 -2.68,-4.08 -7.05,-5.4 -3.75,-1.12 -5.44,-1.45 -5.44,-2.67 0,-1 0.79,-2.16 2.39,-3 a 11,11 0 0 0 10.14,-10.52 6.32,6.32 0 0 0 -0.51,-2.58 h 5.21 l 0.8,-2.68 h -8.27 a 6.37,6.37 0 0 0 -3.33,-0.94 10.89,10.89 0 0 0 -10.75,10.38 6.05,6.05 0 0 0 5,6.25 c -3.05,1.36 -4.74,3 -4.74,4.83 a 3,3 0 0 0 1.27,2.54 c -7,2.07 -9.82,4.41 -9.82,7.75 0,3.34 4.28,4.6 9.35,4.6 8.59,0 15.78,-4.65 15.78,-8.55 m -32.83,-20.1 c 3.1,0 3.15,1.27 2.68,4.65 h 1.78 l 4.14,-11.31 H 116 c -1.55,2.67 -2.77,4.64 -6.15,4.64 H 103 l 3.43,-9.43 c 1.13,-3.15 1.78,-3.76 6,-3.76 h 3 c 4.37,0 4.89,1.17 4.89,5.54 h 1.74 l 1.45,-7.7 H 97.64 L 97.17,660 c 5,1 5.49,1.51 3.15,8 l -5.64,15.4 c -2.35,6.43 -3.33,6.95 -9.11,8 l -0.42,1.46 H 114 l 5.17,-8.17 h -2 c -3.29,3.1 -7.42,6.06 -13.2,6.06 -7.65,0 -7,-0.33 -4.41,-7.33 l 2.72,-7.47 z m 3.8,-19.7 9.16,-6.29 v -1 h -5.55 l -5.07,7.28 z"
       id="path8" />
    <path
       d="m 227.67,613 c 1.74,0 3.24,1.31 2.44,4.65 l -8.11,1.84 c 1.41,-3.76 3.76,-6.53 5.64,-6.53 m 4.46,13 h -1.6 c -2,2.39 -4.18,4.27 -6.34,4.27 -2.16,0 -3.33,-1.32 -3.33,-4.27 a 18,18 0 0 1 0.37,-3.57 l 13,-4.28 c 2.54,-6 -0.51,-8.64 -4.08,-8.64 -6.15,0 -13.15,10.29 -13.15,19.3 0,4 1.92,6.25 4.93,6.25 3.52,0 7.18,-3.43 10.19,-9.06 m -2.58,-18.88 9.15,-8.55 v -1 h -4.93 l -5.63,9.53 z m -26.91,6 h 3.43 l -6.86,18.74 c -0.61,1.59 0.24,3.19 1.88,3.19 3.9,0 10.19,-3.85 12.4,-9.11 h -1.22 c -1.74,1.83 -5.08,4.27 -7.94,4.79 l 6.29,-17.61 h 6.44 l 0.79,-2.68 h -6.24 l 2.39,-6.76 h -2.49 l -4.46,6.76 -4.41,0.75 z m -3.38,2.11 c 0.89,-3.05 0.42,-5.73 -1.93,-5.73 -2.77,0 -3.47,2.12 -6.29,8.17 v -3.47 c 0,-2.49 -0.8,-4.7 -3,-4.7 -2.63,0 -5,4.09 -6.86,8.13 h 1.22 c 1.27,-1.83 2.45,-2.91 3.38,-2.91 1.13,0 1.74,1.73 0,5.58 l -5.07,11.27 c -0.94,2.12 0.05,3.48 2.12,3.48 a 2.09,2.09 0 0 0 2.34,-1.69 l 5,-13.2 c 1.41,-1.73 2.68,-3.24 4.28,-4.93 z M 170.43,613 c 1.73,0 3.24,1.31 2.44,4.65 l -8.08,1.88 c 1.41,-3.76 3.76,-6.53 5.64,-6.53 m 4.46,13 h -1.6 c -2,2.39 -4.18,4.27 -6.34,4.27 -2.16,0 -3.33,-1.32 -3.33,-4.27 a 18,18 0 0 1 0.37,-3.57 l 13,-4.28 c 2.54,-6 -0.52,-8.64 -4.09,-8.64 -6.15,0 -13.14,10.29 -13.14,19.3 0,4 1.92,6.25 4.93,6.25 3.52,0 7.18,-3.43 10.19,-9.06 M 143,631.23 c -1.27,0 -3.1,-1.18 -3.1,-2.21 a 26.86,26.86 0 0 1 1.27,-3.62 l 2.11,-5.59 c 2.26,-2.67 5.69,-5.54 7.61,-5.54 1.18,0 2.07,0.75 2.07,2.49 0,5.12 -4.79,14.47 -10,14.47 m 14.79,-16.53 c 0,-3.81 -1.4,-5.22 -4,-5.22 -3.29,0 -6.39,3.48 -9.49,7.7 l 7.84,-20.61 -0.42,-0.52 -8.22,0.94 v 1 l 1.6,1.22 c 1.45,1.13 1,2.3 -0.33,5.68 l -8.45,21.79 a 25.38,25.38 0 0 0 -1.37,4 c 0,2.26 3.06,4.37 5.83,4.37 6.38,0 17,-11.51 17,-20.33 m -25.54,-2.49 a 1.93,1.93 0 0 0 -1.55,-2.73 c -3.76,0 -8.22,3.38 -10,8.13 h 1.22 c 1.22,-1.74 3.28,-3.67 5.21,-4 L 120,632.31 a 1.87,1.87 0 0 0 1.5,2.69 c 3.56,0 7.74,-3.43 9.53,-8.12 h -1.22 c -1.22,1.73 -3.29,3.66 -5.22,4 z m 1.31,-9.39 a 3.1,3.1 0 1 0 -3.1,-3.1 3.1,3.1 0 0 0 3.1,3.1 m -18.92,-3 H 97.55 l -0.47,1.46 c 5,1 5.49,1.5 3.14,8 l -5.54,15.4 c -2.35,6.43 -3.33,7 -9.11,8 l -0.42,1.46 h 26 L 116.8,624 h -2 c -3.2,3.52 -7,7.94 -12.73,7.94 -4.37,0 -4.88,-0.75 -2.53,-7.33 l 5.54,-15.4 c 2.3,-6.43 3.33,-7 9.11,-8 z"
       id="path10" />
    <path
       class="cls-1"
       d="m 181.65,160 c 0.91,-0.91 1.84,-1.89 2.75,-2.88 v 0 a 55.32,55.32 0 0 1 5.36,-5.47 17.66,17.66 0 0 1 1.75,-1.39 c 0.16,-0.16 0.16,-0.49 0.32,-0.65 -0.8,0.32 -1.28,1 -2.09,1.29 -0.16,0 -0.32,-0.16 -0.16,-0.32 l 1.72,-1.29 h -0.11 c -0.16,0 -0.16,-0.16 -0.16,-0.32 -2.09,-0.32 -3.7,1.13 -5.14,2.41 -0.33,0.16 -0.65,-0.16 -0.81,-0.16 -2.41,0.8 -4.18,2.89 -6.59,3.86 v -0.32 a 30.78,30.78 0 0 1 -2.89,1.12 17.26,17.26 0 0 1 -4,0.16 56.77,56.77 0 0 0 -5.84,1 h -0.17 a 13.78,13.78 0 0 0 -3,1.21 l -0.11,0.06 a 3.48,3.48 0 0 1 -0.24,0.28 3.74,3.74 0 0 1 -1.1,1 16.53,16.53 0 0 0 -2.66,2.09 0.45,0.45 0 0 1 -0.26,0.08 c -0.86,0.83 -1.71,1.67 -2.59,2.48 a 0.78,0.78 0 0 1 -0.49,0.06 v 0 c 0,-0.06 0.07,-0.11 0.1,-0.16 l 0.41,-0.68 c 0.15,-0.25 0.31,-0.5 0.48,-0.74 0.17,-0.24 0.44,-0.66 0.68,-1 a 0.15,0.15 0 0 0 0,-0.21 0.28,0.28 0 0 0 -0.22,-0.09 15.52,15.52 0 0 1 2.7,-2 v 0 c -0.11,0 -0.26,0 -0.18,-0.16 0.08,-0.16 0.18,-0.29 0.27,-0.44 l 0.06,-0.14 a 0.8,0.8 0 0 1 -0.13,-0.13 5.92,5.92 0 0 0 -0.75,0.53 c -0.39,0.35 -0.69,1.06 -1.27,1.05 h -0.24 l -0.17,-0.06 v 0 0 0 l 0.08,-0.14 c 0,-0.05 0,-0.1 0.08,-0.14 l 0.06,-0.11 0.11,-0.21 0.09,-0.14 c 0.07,-0.12 0.14,-0.24 0.2,-0.36 a 1,1 0 0 0 0.1,-0.17 l 0.18,-0.29 a 0.2,0.2 0 0 0 -0.13,-0.29 3.91,3.91 0 0 1 1.1,-1 v 0 c 0.61,-0.31 1.23,-0.68 1.84,-1 l 0.27,-0.23 a 11.28,11.28 0 0 0 -2.56,1.26 1.32,1.32 0 0 0 -0.27,0.15 c 0,0 -0.18,0.07 -0.4,-0.15 a 0.18,0.18 0 0 1 0,-0.11 c 0.16,-0.33 0.64,-0.49 1,-0.81 0.16,0 0.32,0 0.32,0.16 5.14,-4 12.21,-3.05 18.16,-5.14 l 1.44,-1 c 0.81,-0.33 1.45,-1.13 2.41,-1.61 a 7.09,7.09 0 0 0 2.74,-3.7 0.56,0.56 0 0 0 -0.16,-0.32 24.56,24.56 0 0 1 -7.08,5.3 c -3.37,1.77 -7.07,1.45 -10.6,1.93 0.16,-0.32 0.48,-0.32 0.8,-0.32 0,-0.48 0.32,-0.64 0.64,-1 h 0.49 c 0.16,0 0.16,-0.32 0.32,-0.32 0.32,0 0.8,-0.16 0.64,-0.16 -0.48,-0.65 -1.45,0.48 -2.25,0 0.32,-0.33 0.16,-0.81 0.48,-1 h 0.64 a 1.11,1.11 0 0 1 0.33,-0.64 c 2.41,-1.45 4.66,-2.57 6.91,-3.86 -0.49,0 -0.81,0.48 -1.29,0.16 0.32,0 0,-0.48 0.32,-0.48 1.77,-0.48 3.22,-1.45 5,-2.09 -0.64,0 -1.12,0.48 -1.76,0 0.32,-0.16 0.48,-0.48 1,-0.48 v -0.48 c 0,-0.16 0.16,-0.16 0.32,-0.16 a 0.55,0.55 0 0 1 -0.32,-0.17 c 0.16,-0.32 0.64,-0.16 1,-0.48 -0.17,0 -0.49,0 -0.49,-0.16 a 3.22,3.22 0 0 1 2.09,-1 c -0.16,-0.32 -0.64,0 -0.64,-0.32 0,-0.16 0.16,-0.16 0.32,-0.16 h -0.32 c -0.32,-0.16 -0.16,-0.49 -0.16,-0.65 1,-1.12 1,-2.57 1.45,-3.85 -0.17,0 -0.33,0 -0.33,-0.17 -1.6,1.77 -4.17,2.42 -6.59,3.06 h -0.8 a 3.27,3.27 0 0 1 -2.73,-0.16 11.37,11.37 0 0 1 -1.61,-1.29 18.84,18.84 0 0 0 -4,-1.93 36.17,36.17 0 0 0 -12.37,-1.76 c 1.77,-1 3.72,-1.05 5.62,-1.61 2.74,-0.8 5.31,-1.77 8.2,-1.61 a 5.43,5.43 0 0 0 -1.61,0 c -2.25,-0.16 -4.5,0.48 -6.91,1 -1.6,0.32 -3.05,1 -4.66,1.28 -1,0.32 -1.44,1.29 -2.57,1.13 v -0.49 c 1.61,-1.92 3.54,-3.85 6.11,-4 2.89,-0.49 5.62,0 8.52,0.32 a 41,41 0 0 1 6.1,1.12 c 0.81,0 1,1.29 1.61,1.45 1,0.32 1.93,0 2.89,0.64 0,-0.32 -0.16,-0.64 0,-1 0.65,-0.64 1.45,0.16 2.09,-0.16 1.29,-0.81 -1.12,-2.25 -1.77,-3.38 a 0.56,0.56 0 0 1 0.16,-0.32 c 1.29,1.13 2.25,2.41 3.86,3.22 0.81,0.32 2.73,0.8 2.41,-0.17 -0.8,-1.76 -2.41,-3.21 -3.69,-4.82 V 124 c -0.33,0 -0.33,-0.16 -0.49,-0.32 v -0.64 c -0.64,-0.33 -0.48,-1 -0.8,-1.45 -0.48,-0.8 -0.16,-1.93 -0.48,-2.89 a 17,17 0 0 1 -0.64,-2.74 c -0.49,-2.73 -1.13,-5.14 -1.45,-7.71 -0.32,-3.05 1.77,-5.46 3.21,-8.2 A 13.89,13.89 0 0 1 183,95 a 14.17,14.17 0 0 1 3,-5.19 13.45,13.45 0 0 1 5,-3.22 43.16,43.16 0 0 1 4.26,-1.59 H 85 v 85 h 78.1 c 3.06,-2.2 6.12,-3.25 10.39,-5.35 1.98,-0.99 6.6,-3.11 8.16,-4.65 z m -24.71,-11.51 c -0.32,0 -1,0.16 -0.81,-0.16 0.17,-0.81 1.29,-0.81 1.93,-1.13 0.32,-0.16 0.81,-0.48 1.13,-0.32 0.32,0.48 0.8,0.32 1.12,0.64 -0.96,0.95 -2.25,0.48 -3.37,0.95 z m -24.59,-3.54 a 0.56,0.56 0 0 1 -0.16,-0.32 48.81,48.81 0 0 0 5.14,-8.2 22.19,22.19 0 0 0 5.47,-4.49 31.13,31.13 0 0 1 9,-7.08 6.23,6.23 0 0 1 4.2,0.14 c -0.48,0.65 -1.28,0.49 -1.92,1 a 0.6,0.6 0 0 1 -0.49,-0.16 0.59,0.59 0 0 0 0.16,-0.48 c -1.6,1.76 -3.85,2.57 -5.14,4.66 -1,1.6 -1.61,3.69 -3.69,4.17 -0.65,0.17 0.16,-0.48 -0.17,-0.32 -5.01,3.03 -8.54,6.72 -12.4,11.06 z m 13.34,-10.6 c -0.16,0.32 -0.34,0.35 -0.48,0.64 a 1.23,1.23 0 0 1 -0.65,0.64 c -0.16,0 -0.32,0 -0.32,-0.16 a 2,2 0 0 1 1.29,-1.45 c 0.16,-0.02 0.16,0.14 0.16,0.31 z m 7.46,24.07 a 1.33,1.33 0 0 1 -0.39,0.47 c 0.2,0 0.34,0.13 0.21,0.25 a 3.45,3.45 0 0 1 -1.22,0.85 h -0.25 c -0.19,0.19 -0.39,0.38 -0.6,0.56 -0.21,0.18 -1.07,0 -0.8,-0.2 0.27,-0.2 0.79,-0.75 1.19,-1.12 a 8,8 0 0 0 0.67,-0.64 1.88,1.88 0 0 1 0.34,-0.35 c 0.13,-0.08 0.98,-0.15 0.85,0.16 z m -2.88,-1.32 v 0 c -0.6,0.43 -1.2,0.86 -1.83,1.23 -0.63,0.37 -1.41,0.7 -2.12,1 0,0 0,0 0,0 a 0.22,0.22 0 0 0 -0.27,-0.07 7.57,7.57 0 0 0 -1.62,1.24 l -0.23,0.21 v 0 0 c -0.08,0.07 -0.15,0.15 -0.23,0.23 v 0 0 l -0.35,0.37 a 0.77,0.77 0 0 1 -0.21,0.23 c -0.1,0.06 -0.38,0.06 -0.35,-0.12 v 0 l -0.29,0.14 -0.25,0.14 h -0.11 -0.11 l -0.58,0.49 a 9.75,9.75 0 0 0 -0.94,1 v 0 0 l -0.05,0.06 v 0.07 0 l -0.11,0.16 v 0 a 0.26,0.26 0 0 1 -0.13,0.06 l -0.07,-0.09 c 0,0 0,-0.05 0,-0.08 a 2.15,2.15 0 0 1 -0.14,-0.26 v 0 a 0.2,0.2 0 0 1 0,-0.08 c 0.17,-0.18 0.34,-0.38 0.5,-0.58 v 0 l 0.17,-0.21 0.27,-0.34 a 1.47,1.47 0 0 1 0.1,-0.13 l 0.5,-0.68 v 0 a 0.36,0.36 0 0 0 0.07,-0.1 c 0.08,-0.11 0.15,-0.23 0.22,-0.34 l 0.18,-0.32 v 0 0 a 0.14,0.14 0 0 0 0,-0.06 c 0.06,-0.12 0.11,-0.25 0.16,-0.38 v 0 -0.1 c 0,-0.06 0,-0.12 0.05,-0.18 v 0 0 a 1.69,1.69 0 0 0 0,-0.24 0.12,0.12 0 0 0 0,-0.1 4.87,4.87 0 0 1 0.64,-0.87 h -0.07 c -0.23,0.15 -0.39,0.36 -0.6,0.52 -0.21,0.16 -0.5,-0.09 -0.29,-0.25 a 4,4 0 0 0 0.37,-0.33 v 0 a 9.07,9.07 0 0 1 0.82,-0.82 5.43,5.43 0 0 0 0.5,-0.38 l 0.07,-0.06 a 3.52,3.52 0 0 1 0.36,-0.41 v 0 c 1.54,-1.49 4.13,-1.42 6.16,-2.37 0.8,-0.32 1.77,0.16 2.57,0 a 2.36,2.36 0 0 1 1.45,0.33 c -1.56,0.73 -2.89,1.62 -4.21,2.45 z m 3.29,-11.18 c -0.16,-0.16 0.49,0 0.65,-0.32 h -1.29 c -0.16,0 -0.16,-0.17 -0.16,-0.33 -0.8,0.16 -1.77,0.49 -2.57,0.65 -1.13,0.32 -2.09,1.12 -3.38,1.44 -1.76,0.65 -3.21,2.09 -5.14,2.74 -0.16,0 -0.16,-0.17 -0.16,-0.33 0.16,-0.48 0.8,-0.64 1.12,-1.12 0,-0.16 0,-0.32 -0.16,-0.32 1.29,-1.77 3.06,-2.73 4.66,-4.18 v -0.48 c 0.49,-0.65 1.29,-1 1.61,-1.77 a 2.92,2.92 0 0 1 1.61,-1.45 c -0.16,-0.16 -0.48,-0.16 -0.48,-0.48 -0.65,0 -1.29,0.32 -1.93,-0.16 a 2.28,2.28 0 0 1 1,-0.57 0.62,0.62 0 0 1 -0.37,-0.23 c -0.16,-0.32 0.31,-0.68 0.8,-0.81 0.65,-0.16 1.45,-0.16 1.93,-0.64 -1.12,-0.16 -2.41,0.32 -3.53,-0.32 a 8.55,8.55 0 0 1 4,-4.82 c 0.16,0 0.48,0 0.48,0.16 a 1.56,1.56 0 0 1 -1.29,1.6 17.62,17.62 0 0 1 3.86,1 c -0.16,0.32 -0.48,0.16 -0.64,0.16 0.8,0.48 1.76,0.16 2.57,0.8 -0.48,0.49 -1,0 -1.45,0 5,1.45 10.29,2.58 14.46,5.79 a 44,44 0 0 1 -11.08,3.37 3.55,3.55 0 0 1 -1.29,-0.16 c 0,0.16 0,0.49 -0.16,0.49 a 2.66,2.66 0 0 0 -1.61,0.32 2,2 0 0 1 -2.06,-0.05 z"
       id="path12" />
    <path
       class="cls-2"
       d="m 318.84,85 h -91.48 a 4.07,4.07 0 0 1 0.86,0.41 l 2.31,1.22 a 7.59,7.59 0 0 1 3.07,2.58 c 0.32,0.48 0.8,1.44 0.48,2.09 -0.32,0.65 -0.48,2.08 -1.29,2.41 a 6,6 0 0 1 -3.37,0.32 8.11,8.11 0 0 1 -1.93,-0.32 c 2.41,1 4.66,2.09 6.27,4.34 0.16,0.32 0.8,0.48 1.44,0.48 0.16,0 0.16,0.32 0.16,0.48 -0.32,0.32 -0.64,0.48 -0.48,1 h 0.48 c 0.81,-0.32 0.65,-1.92 1.77,-1.44 a 1.81,1.81 0 0 1 0.65,2.41 19.36,19.36 0 0 1 -1.93,1.61 1.37,1.37 0 0 0 0,1.12 5,5 0 0 1 0.8,1.93 c 0.48,1.12 0.64,2.41 1.13,3.53 a 22.77,22.77 0 0 1 1.12,7.24 c 0,1.28 -0.64,2.41 -0.16,3.69 a 13.31,13.31 0 0 0 1.77,3.38 25.14,25.14 0 0 1 1.77,2.57 c 1,1.61 2.73,3.21 1.92,5.14 -0.48,1.13 -2.25,1 -3.37,1.61 -1,0.8 -0.16,2.09 0.32,2.89 0.8,1.45 -1,2.41 -2.09,2.89 0.32,0.49 1,0.33 1.13,0.65 0.16,0.8 1,1.28 0.48,2.09 -0.65,1 -2.57,1.44 -1.61,2.89 0.64,1.12 0.23,2.37 -0.16,3.53 a 4,4 0 0 1 -2.89,2.42 6.62,6.62 0 0 1 -3.06,0.16 2.3,2.3 0 0 0 -1,-0.33 c -2.73,-0.32 -5.46,-1.12 -8.2,-1.12 a 9.38,9.38 0 0 0 -2.25,0.64 14.78,14.78 0 0 0 -1.94,1.72 v 0 l -0.35,0.39 -0.21,0.25 -0.14,0.17 a 14.7,14.7 0 0 0 -1.26,1.85 l -0.07,0.12 -0.13,0.23 a 15.87,15.87 0 0 0 -1.21,2.94 c -1.1,3.68 -0.62,6.84 0.15,7.61 0.21,0.21 5.3,1.78 8.85,3.36 A 29.63,29.63 0 0 1 229,170 h 89.84 z"
       id="path14" />
    <path
       class="cls-3"
       d="m 232.8,116 c 0.64,0.16 1.6,0.16 1.6,0.48 -0.32,1.29 -2.25,1.61 -3.21,2.9 h -0.48 c -0.48,0.32 -0.32,1.12 -0.81,1.12 a 2.26,2.26 0 0 0 -1.44,0.16 2.73,2.73 0 0 0 2.41,1 0.73,0.73 0 0 1 0.48,0.65 0.5,0.5 0 0 0 0.32,-0.16 c 0.16,0 0.32,0 0.32,0.16 v 0.64 c -0.48,0.64 -1.28,0.32 -1.93,0.48 a 7.24,7.24 0 0 0 3.7,0 c 1,-0.32 0,-1.93 0.64,-2.73 -0.32,0 0,-0.48 -0.32,-0.48 a 5.91,5.91 0 0 1 1,-1 1.14,1.14 0 0 0 1,-0.48 c 0,-0.32 -0.64,-0.48 -0.48,-0.8 1,-0.64 1.77,-1.61 1.45,-2.57 -0.17,-0.48 -1.45,-0.48 -2.25,-0.81 a 5.42,5.42 0 0 0 -2.74,0.16 13.7,13.7 0 0 0 -2.41,0.65 11.12,11.12 0 0 0 -3.05,1.6 22.74,22.74 0 0 1 3.53,-1 10.47,10.47 0 0 1 2.67,0.03 z"
       id="path16" />
    <path
       d="m 85.38,212.53 h 16.16 l 15.61,26.84 15.61,-26.84 h 16.15 v 63.9 H 136 V 230.6 l -14.24,23.92 h -9.13 L 98.35,230.6 v 45.83 h -13 z"
       id="path18" />
    <path
       d="m 166.71,212.53 h 13 v 63.9 h -13 z"
       id="path20" />
    <path
       d="m 197.56,212.53 h 16.61 l 28.57,46.19 v -46.19 h 13 v 63.9 h -16.65 l -28.57,-46.19 v 46.19 h -13 z"
       id="path22" />
    <path
       d="m 273.59,212.53 h 13 v 63.9 h -13 z"
       id="path24" />
    <path
       d="m 308.09,258.9 c 3.84,4.93 9,7.85 14.15,7.85 5.15,0 8.22,-2.74 8.22,-7.3 0,-11.78 -29,-8.58 -29,-30.21 0,-10.14 8.4,-18.53 20.63,-18.53 9.58,0 16.89,4.29 22.36,10.77 l -9.49,8.58 c -3.74,-4.84 -7.94,-8 -12.78,-8 -4.56,0 -7.57,2.93 -7.57,6.76 0,11.59 29,8.31 29,30.21 -0.18,12.05 -9.58,19.26 -21.27,19.26 -10.77,0 -18,-3.92 -23.64,-10.68 z"
       id="path26" />
    <path
       d="m 350.17,212.53 h 52.4 v 11.78 h -19.72 v 52.12 h -13 v -52.12 h -19.68 z"
       id="path28" />
    <path
       d="m 414,212.53 h 37.25 v 10.77 h -24.31 v 15.15 h 20.63 v 10.78 h -20.63 v 16.43 h 24.28 v 10.77 H 414 Z m 1.1,-17.8 h 13.3 l 10.31,12.33 h -11.86 z"
       id="path30" />
    <path
       d="m 466.28,212.53 h 19.53 c 14.06,0 22.73,7.21 22.73,19.08 0,7.76 -3.75,13.51 -10.32,16.52 l 20,28.3 H 503 l -17.1,-25.84 h -6.66 v 25.84 h -13 z m 13,10.77 v 16.52 h 7.3 c 5.48,0 8.67,-3.19 8.67,-8.39 0,-4.84 -3.19,-8.13 -8.67,-8.13 z"
       id="path32" />
    <path
       d="m 526.43,212.53 h 37.24 v 10.77 h -24.28 v 15.15 H 560 v 10.78 h -20.61 v 16.43 h 24.28 v 10.77 h -37.24 z"
       id="path34" />
    <path
       d="m 85.38,304.82 h 25.11 c 20.26,0 34,14.7 34,31.95 0,17.25 -13.69,32 -33.95,32 H 85.38 Z m 13,11.78 v 40.34 h 12.32 c 11.86,0 20.44,-8.85 20.44,-20.17 0,-11.32 -8.58,-20.17 -20.44,-20.17 z"
       id="path36" />
    <path
       d="m 156.94,304.82 h 37.25 v 10.77 h -24.28 v 15.16 h 20.62 v 10.77 H 169.91 V 358 h 24.28 v 10.77 h -37.25 z"
       id="path38" />
    <path
       d="m 233,304.82 h 13 v 52.12 h 24.28 v 11.78 H 233 Z"
       id="path40" />
    <path
       d="m 267.48,331.11 8.21,-26.29 h 13.15 l -10.59,26.29 z"
       id="path42" />
    <path
       d="m 299,304.82 h 37.24 v 10.77 h -24.31 v 15.16 h 20.63 v 10.77 H 311.93 V 358 h 24.28 v 10.77 H 299 Z"
       id="path44" />
    <path
       d="m 351.27,304.82 h 16.61 L 396.45,351 v -46.18 h 13 v 63.9 H 392.8 l -28.57,-46.19 v 46.19 h -13 z"
       id="path46" />
    <path
       d="m 431,351.19 c 3.83,4.93 8.95,7.85 14.15,7.85 5.2,0 8.21,-2.74 8.21,-7.3 0,-11.78 -29,-8.58 -29,-30.21 0,-10.14 8.4,-18.53 20.63,-18.53 9.58,0 16.88,4.29 22.36,10.77 l -9.49,8.58 c -3.75,-4.84 -7.94,-8 -12.78,-8 -4.57,0 -7.58,2.93 -7.58,6.76 0,11.59 29,8.31 29,30.21 -0.18,12.05 -9.59,19.26 -21.27,19.26 -10.77,0 -18,-3.92 -23.64,-10.68 z"
       id="path48" />
    <path
       d="m 480.06,304.82 h 37.24 v 10.77 H 493 v 15.16 h 20.63 v 10.77 H 493 V 358 h 24.3 v 10.77 h -37.24 z"
       id="path50" />
    <path
       d="m 532.36,304.82 h 13 v 63.9 h -13 z"
       id="path52" />
    <path
       d="M 607.48,352.83 V 341.7 h -16.25 v -11.05 h 29.21 v 26.84 c -5.93,7.94 -15.88,13.05 -27.84,13.05 -20.72,0 -34.87,-15.52 -34.87,-33.77 0,-18.25 13.78,-33.77 34,-33.77 11.59,0 21.08,5.2 26.92,13 l -10.22,7.94 a 20,20 0 0 0 -16.7,-8.76 c -12.05,0 -20.63,9.4 -20.63,21.63 0,12.23 9,21.63 21.54,21.63 a 21.34,21.34 0 0 0 14.84,-5.61 z"
       id="path54" />
    <path
       d="m 634.86,304.82 h 16.61 L 680,351 v -46.18 h 13 v 63.9 h -16.61 l -28.57,-46.19 v 46.19 h -13 z"
       id="path56" />
    <path
       d="m 710.89,304.82 h 37.24 v 10.77 h -24.28 v 15.16 h 20.63 v 10.77 H 723.85 V 358 h 24.28 v 10.77 h -37.24 z"
       id="path58" />
    <path
       d="m 763.19,304.82 h 16.16 l 15.65,26.84 15.61,-26.84 h 16.15 v 63.9 h -13 V 322.9 l -14.24,23.91 h -9.13 L 776.15,322.9 v 45.82 h -13 z"
       id="path60" />
    <path
       d="m 844.52,304.82 h 37.24 v 10.77 h -24.28 v 15.16 h 20.63 v 10.77 H 857.48 V 358 h 24.28 v 10.77 h -37.24 z"
       id="path62" />
    <path
       d="m 896.82,304.82 h 16.61 L 942,351 v -46.18 h 13 v 63.9 h -16.65 l -28.57,-46.19 v 46.19 h -13 z"
       id="path64" />
    <path
       d="m 966.28,304.82 h 52.39 V 316.6 H 999 v 52.12 H 986 V 316.6 h -19.72 z"
       id="path66" />
    <path
       d="m 89,443.48 c 3.84,4.93 9,7.85 14.15,7.85 5.15,0 8.22,-2.74 8.22,-7.3 0,-11.78 -29,-8.58 -29,-30.21 0,-10.14 8.4,-18.53 20.63,-18.53 9.58,0 16.89,4.29 22.36,10.77 l -9.49,8.58 c -3.74,-4.84 -7.94,-8 -12.78,-8 -4.56,0 -7.57,2.92 -7.57,6.75 0,11.59 29,8.31 29,30.21 -0.18,12.05 -9.58,19.26 -21.27,19.26 -10.77,0 -18,-3.92 -23.64,-10.68 z"
       id="path68" />
    <path
       d="m 175.11,397.11 h 13 V 436 c 0,16.79 -9.86,26.83 -25.92,26.83 -16.06,0 -25.83,-10 -25.83,-26.83 v -38.89 h 13 v 40 c 0,8.58 4.84,13.6 13,13.6 7.94,0 12.87,-5 12.87,-13.6 z"
       id="path70" />
    <path
       d="m 204.13,397.11 h 21.09 c 14.05,0 22.64,7.21 22.64,19.08 0,11.87 -8.59,19 -22.64,19 h -8.13 V 461 h -13 z m 13,10.77 v 16.52 h 8.68 c 5.47,0 8.76,-3.19 8.76,-8.39 0,-4.84 -3.29,-8.13 -8.76,-8.13 z"
       id="path72" />
    <path
       d="m 258.53,397.11 h 37.24 v 10.77 H 271.49 V 423 h 20.63 v 10.77 h -20.63 v 16.43 h 24.28 V 461 h -37.24 z m 12.6,-5.47 10.31,-12.33 h 13.33 l -11.87,12.33 z"
       id="path74" />
    <path
       d="m 310.83,397.11 h 19.54 c 14.05,0 22.73,7.21 22.73,19.08 0,7.76 -3.75,13.51 -10.32,16.52 l 20,28.3 h -15.25 l -17.07,-25.83 h -6.67 V 461 h -13 z m 13,10.77 v 16.52 h 7.31 c 5.47,0 8.67,-3.19 8.67,-8.39 0,-4.84 -3.2,-8.13 -8.67,-8.13 z"
       id="path76" />
    <path
       d="m 371,397.11 h 13 V 461 h -13 z"
       id="path78" />
    <path
       d="m 401.83,397.11 h 37.25 v 10.77 H 414.8 V 423 h 20.62 v 10.77 H 414.8 v 16.43 h 24.28 V 461 h -37.25 z"
       id="path80" />
    <path
       d="m 491.47,397.11 h 13 V 436 c 0,16.79 -9.86,26.83 -25.92,26.83 -16.06,0 -25.84,-10 -25.84,-26.83 v -38.89 h 13 v 40 c 0,8.58 4.83,13.6 13,13.6 7.94,0 12.87,-5 12.87,-13.6 z"
       id="path82" />
    <path
       d="M 520.49,397.11 H 540 c 14.06,0 22.73,7.21 22.73,19.08 0,7.76 -3.74,13.51 -10.31,16.52 l 20,28.3 h -15.24 l -17.06,-25.83 h -6.67 V 461 h -13 z m 13,10.77 v 16.52 h 7.31 c 5.47,0 8.67,-3.19 8.67,-8.39 0,-4.84 -3.2,-8.13 -8.67,-8.13 z"
       id="path84" />
    <path
       d="m 85.38,489.4 h 37.25 v 10.77 H 98.35 v 15.16 H 119 V 526.1 H 98.35 v 16.43 h 24.28 V 553.3 H 85.38 Z"
       id="path86" />
    <path
       d="m 132.48,489.4 h 52.4 v 11.78 h -19.72 v 52.12 h -13 v -52.12 h -19.68 z"
       id="path88" />
    <path
       d="m 220,489.4 h 25.11 c 20.26,0 33.95,14.7 33.95,32 0,17.3 -13.69,31.95 -33.95,31.95 H 220 Z m 13,11.78 v 40.34 h 12.3 c 11.86,0 20.44,-8.85 20.44,-20.17 0,-11.32 -8.58,-20.17 -20.44,-20.17 z"
       id="path90" />
    <path
       d="m 291.57,489.4 h 37.25 v 10.77 h -24.28 v 15.16 h 20.62 v 10.77 h -20.62 v 16.43 h 24.28 v 10.77 h -37.25 z"
       id="path92" />
    <path
       d="m 367.61,489.4 h 13 v 52.12 h 24.28 v 11.78 h -37.28 z"
       id="path94" />
    <path
       d="m 435.15,489.4 h 17 l 24.19,63.9 h -13.81 l -6.11,-16.62 h -25.56 l -6.12,16.62 H 411 Z m 17.25,36.24 -8.76,-24 -8.76,24 z"
       id="path96" />
    <path
       d="m 509.9,489.4 h 19.54 c 14,0 22.72,7.21 22.72,19.08 0,7.76 -3.74,13.51 -10.31,16.52 l 20,28.3 H 546.6 l -17.07,-25.84 h -6.67 v 25.84 h -13 z m 13,10.77 v 16.52 h 7.31 c 5.47,0 8.67,-3.19 8.67,-8.39 0,-4.84 -3.2,-8.13 -8.67,-8.13 z"
       id="path98" />
    <path
       d="m 570.05,489.4 h 37.24 v 10.77 H 583 v 15.16 h 20.63 V 526.1 H 583 v 16.43 h 24.28 v 10.77 h -37.23 z"
       id="path100" />
    <path
       d="m 666.08,534.22 10.22,7.85 c -5.84,7.94 -15.34,13 -26.93,13 -20.17,0 -34,-15.51 -34,-33.77 0,-18.26 13.78,-33.77 34,-33.77 11.59,0 21.09,5.2 26.93,13 l -10.22,7.94 a 20,20 0 0 0 -16.71,-8.76 c -12,0 -20.63,9.4 -20.63,21.63 0,12.23 8.58,21.66 20.63,21.66 a 20,20 0 0 0 16.71,-8.78 z"
       id="path102" />
    <path
       d="m 687.52,489.4 h 13 v 25.47 h 32.22 V 489.4 h 13 v 63.9 h -13 v -26.66 h -32.25 v 26.66 h -13 z"
       id="path104" />
    <path
       d="m 763.56,489.4 h 37.24 v 10.77 h -24.28 v 15.16 h 20.63 v 10.77 h -20.63 v 16.43 h 24.28 v 10.77 h -37.24 z"
       id="path106" />
    <path
       d="m 815.86,489.4 h 19.53 c 14.06,0 22.73,7.21 22.73,19.08 0,7.76 -3.74,13.51 -10.32,16.52 l 20,28.3 h -15.25 l -17.07,-25.84 h -6.66 v 25.84 h -13 z m 13,10.77 v 16.52 h 7.3 c 5.48,0 8.67,-3.19 8.67,-8.39 0,-4.84 -3.19,-8.13 -8.67,-8.13 z"
       id="path108" />
    <path
       d="m 920.55,534.22 10.23,7.85 c -5.85,7.94 -15.34,13 -26.93,13 -20.17,0 -34,-15.51 -34,-33.77 0,-18.26 13.79,-33.77 34,-33.77 11.59,0 21.08,5.2 26.93,13 l -10.23,7.94 a 20,20 0 0 0 -16.7,-8.76 c -12.05,0 -20.63,9.4 -20.63,21.63 0,12.23 8.58,21.66 20.63,21.66 a 20,20 0 0 0 16.7,-8.78 z"
       id="path110" />
    <path
       d="m 942,489.4 h 13 v 25.47 h 32.22 V 489.4 h 13 v 63.9 h -13 V 526.64 H 955 v 26.66 h -13 z"
       id="path112" />
    <path
       d="m 1018,489.4 h 37.24 v 10.77 H 1031 v 15.16 h 20.63 V 526.1 H 1031 v 16.43 h 24.28 V 553.3 H 1018 Z"
       id="path114" />
  </g>
  <g
     id="zone"
     inkscape:export-filename="C:\Users\arnaud\Desktop\logo-mesr.png"
     inkscape:export-xdpi="7.342607"
     inkscape:export-ydpi="7.342607"
     transform="scale(0.97006246,1)">
    <rect
       class="cls-4"
       x="151.36"
       y="-151.36"
       width="836.76001"
       height="1139.47"
       transform="rotate(90,569.735,418.375)"
       id="rect117" />
  </g>
</svg>
