<svg width="63.584" height="55.354" viewBox="0 0 16.823 14.646" xmlns="http://www.w3.org/2000/svg"><g transform="translate(-40.969 -97.583)"><path style="fill:#00a0dc;fill-opacity:1;stroke:none;stroke-width:.144606;stroke-opacity:1;stop-color:#000" d="M41.8 100.088H52.28c.46 0 .831.421.831.945v10.25c0 .524-.37.946-.831.946H41.8c-.46 0-.831-.422-.831-.945v-10.251c0-.524.37-.945.831-.945z"/><path d="m47.072 102.02-4.87 2.656 4.87 2.657 3.985-2.174v3.06h.885v-3.543m-7.969 1.851v1.771l3.1 1.691 3.098-1.691v-1.77l-3.099 1.69z" style="fill:#fff;fill-opacity:1;stroke-width:.442726"/><circle style="fill:#009f1d;fill-opacity:1;stroke:#fff;stroke-width:.379704;stroke-linecap:round;stroke-linejoin:round;stroke-miterlimit:4;stroke-dasharray:none;stroke-opacity:1;stop-color:#000" cx="54.151" cy="101.224" r="3.451"/><path d="m55.669 99.387.659.664-3.075 3.104-1.634-1.649.66-.663.974.979 2.416-2.435" style="fill:#fff;fill-opacity:1;stroke:none;stroke-width:.30061;stroke-miterlimit:4;stroke-dasharray:none;stroke-opacity:1"/></g></svg>